<?xml version="1.0" encoding="UTF-8" standalone="no"?>
<svg
   xmlns:dc="http://purl.org/dc/elements/1.1/"
   xmlns:cc="http://creativecommons.org/ns#"
   xmlns:rdf="http://www.w3.org/1999/02/22-rdf-syntax-ns#"
   xmlns:svg="http://www.w3.org/2000/svg"
   xmlns="http://www.w3.org/2000/svg"
   viewBox="0 0 241.89333 119.58667"
   height="119.58667"
   width="241.89333"
   xml:space="preserve"
   id="svg2"
   version="1.1"><metadata
     id="metadata8"><rdf:RDF><cc:Work
         rdf:about=""><dc:format>image/svg+xml</dc:format><dc:type
           rdf:resource="http://purl.org/dc/dcmitype/StillImage" /></cc:Work></rdf:RDF></metadata><defs
     id="defs6" /><g
     transform="matrix(1.3333333,0,0,-1.3333333,0,119.58667)"
     id="g10"><g
       transform="scale(0.1)"
       id="g12"><path
         id="path14"
         style="fill:#040606;fill-opacity:1;fill-rule:nonzero;stroke:none"
         d="m 1785.32,738.227 c -1.47,-7.594 -8.83,-12.547 -16.42,-11.071 -3.65,0.707 -6.86,2.836 -8.93,5.91 -4.33,6.414 -2.64,15.118 3.78,19.438 6.41,4.324 15.12,2.633 19.43,-3.777 2.08,-3.079 2.86,-6.852 2.14,-10.5 z M 1651.97,599.324 c -33.63,0 -60.89,27.262 -60.89,60.895 0,33.629 27.26,60.89 60.89,60.89 33.64,0 60.89,-27.261 60.89,-60.89 v 0 c -0.04,-33.617 -27.27,-60.856 -60.89,-60.895 z m -14,205.172 c 0.01,7.731 6.27,13.996 14,13.996 7.73,-0.008 14,-6.277 14,-14.004 -0.01,-7.726 -6.27,-13.992 -14,-13.992 -7.73,0.012 -13.99,6.27 -14,14 z m -113.45,-75.207 c -6.4,4.328 -8.09,13.031 -3.77,19.441 4.33,6.411 13.03,8.098 19.44,3.774 6.41,-4.324 8.1,-13.027 3.77,-19.438 -4.32,-6.402 -13.02,-8.089 -19.44,-3.777 z m 55.62,44.934 c -7.4,2.261 -11.56,10.09 -9.29,17.48 2.26,7.395 10.09,11.555 17.48,9.293 7.39,-2.262 11.55,-10.09 9.29,-17.48 -1.09,-3.551 -3.54,-6.524 -6.81,-8.27 -3.28,-1.75 -7.12,-2.117 -10.67,-1.023 z m 127.2,19.961 c 3.63,6.828 12.1,9.414 18.93,5.785 6.83,-3.633 9.42,-12.11 5.79,-18.934 -3.63,-6.828 -12.11,-9.414 -18.93,-5.789 v 0 c -6.81,3.567 -9.44,11.977 -5.87,18.781 0.03,0.047 0.05,0.102 0.08,0.157 z m 86.38,-38.348 c -8.21,12.219 -24.78,15.469 -37,7.254 -10.23,-6.863 -14.42,-19.84 -10.14,-31.387 l -32.15,-21.683 c -5.49,6.859 -12.07,12.777 -19.47,17.519 l 18.17,34.184 c 2.13,-0.551 4.33,-0.836 6.54,-0.84 2.65,0.004 5.3,0.398 7.85,1.183 14.15,4.254 22.17,19.176 17.91,33.332 -4.26,14.157 -19.18,22.18 -33.33,17.922 -14.16,-4.257 -22.18,-19.183 -17.92,-33.34 1.42,-4.71 4.1,-8.941 7.77,-12.222 l -18.18,-34.203 c -8.08,3.496 -16.67,5.629 -25.44,6.308 v 38.774 c 14.33,3.511 23.1,17.976 19.59,32.308 -3.52,14.328 -17.98,23.098 -32.31,19.586 -14.33,-3.515 -23.1,-17.976 -19.58,-32.308 2.36,-9.668 9.92,-17.219 19.59,-19.586 v -38.774 c -8.77,-0.679 -17.38,-2.812 -25.44,-6.308 l -18.2,34.203 c 10.92,9.84 11.79,26.664 1.95,37.578 -9.84,10.914 -26.66,11.789 -37.58,1.945 -10.91,-9.84 -11.79,-26.668 -1.95,-37.582 3.25,-3.586 7.4,-6.226 12.02,-7.633 2.54,-0.785 5.19,-1.179 7.85,-1.183 2.2,0.004 4.39,0.289 6.53,0.84 l 18.18,-34.192 c -7.4,-4.734 -13.98,-10.652 -19.47,-17.515 l -32.16,21.687 c 5.01,13.805 -2.12,29.055 -15.91,34.063 -13.8,5.011 -29.05,-2.114 -34.06,-15.914 -5.02,-13.797 2.11,-29.047 15.91,-34.063 9.29,-3.375 19.69,-1.312 26.99,5.352 l 32.1,-21.661 c -21.75,-38.425 -8.25,-87.226 30.19,-108.988 38.43,-21.762 87.22,-8.254 108.98,30.176 13.85,24.449 13.85,54.371 0,78.816 l 32.1,21.657 c 10.92,-9.911 27.8,-9.094 37.71,1.812 8.27,9.106 9.25,22.688 2.36,32.883 v 0" /><path
         id="path16"
         style="fill:#040606;fill-opacity:1;fill-rule:nonzero;stroke:none"
         d="m 851.094,247.832 c -83.656,0 -151.707,62.402 -151.707,139.121 V 694.93 h 19.07 V 386.953 c 0,-66.191 59.496,-120.051 132.637,-120.051 73.136,0 132.636,53.86 132.636,120.051 V 694.93 h 19.07 V 386.953 c 0,-76.719 -68.054,-139.121 -151.706,-139.121" /><path
         id="path18"
         style="fill:#040606;fill-opacity:1;fill-rule:nonzero;stroke:none"
         d="M 1417.76,694.902 V 255.945 L 1040.97,647.582 V 255.848 h -19.09 v 439.054 l 376.79,-391.64 v 391.64 h 19.09" /><path
         id="path20"
         style="fill:#040606;fill-opacity:1;fill-rule:nonzero;stroke:none"
         d="M 680.309,675.855 V 694.93 H 481.66 V 255.898 h 198.649 v 19.071 H 500.73 v 210.676 h 179.579 v 19.078 H 500.73 v 171.132 h 179.579" /><path
         id="path22"
         style="fill:#040606;fill-opacity:1;fill-rule:nonzero;stroke:none"
         d="m 1536.16,675.855 v 19.075 h -99.32 V 255.898 h 198.65 v 19.071 h -179.58 v 210.676 h 179.58 v 19.078 h -179.58 v 171.132 h 80.25" /><path
         id="path24"
         style="fill:#040606;fill-opacity:1;fill-rule:nonzero;stroke:none"
         d="m 445.18,255.898 h 26.937 L 239.16,488.891 445.18,694.93 H 418.199 L 203.328,480.031 V 694.93 H 184.246 V 255.898 h 19.082 v 197.153 l 22.352,22.351 219.5,-219.504" /><path
         id="path26"
         style="fill:#040606;fill-opacity:1;fill-rule:nonzero;stroke:none"
         d="m 1546.04,93.0078 -10.41,-2.9219 c 3.02,-16.4453 18.8,-27.3242 35.24,-24.2968 14.13,2.5976 24.49,14.7656 24.79,29.1328 0,15.2621 -10.55,21.5041 -23.02,26.9731 l -6.37,2.793 c -6.48,2.937 -15.01,6.757 -15.01,15.019 0.18,8.406 7.14,15.078 15.56,14.902 0.11,-0.011 0.23,-0.011 0.35,-0.011 7.12,0.187 13.64,-3.934 16.54,-10.438 l 8.53,5.477 c -4.79,9.25 -14.4,15 -24.82,14.863 -13.86,0.938 -25.84,-9.539 -26.78,-23.398 -0.02,-0.332 -0.03,-0.672 -0.04,-1.004 0,-13.75 9.64,-19.473 20.85,-24.571 l 5.84,-2.539 c 8.91,-4.082 17.69,-7.883 17.69,-19.0817 -0.31,-10.5977 -9.12,-18.9571 -19.72,-18.711 -9.99,0.2344 -18.23,7.8711 -19.22,17.8125" /><path
         id="path28"
         style="fill:#040606;fill-opacity:1;fill-rule:nonzero;stroke:none"
         d="m 1412.07,114.512 c 0.19,-27.3636 22.52,-49.4065 49.89,-49.219 10.32,0.0664 20.34,3.3476 28.7,9.3945 V 87.918 c -7.63,-7.8711 -18.04,-12.4297 -29,-12.7227 -21.93,0.418 -39.37,18.5352 -38.95,40.4567 0.41,21.243 17.46,38.399 38.7,38.946 11.07,-0.125 21.62,-4.715 29.25,-12.735 v 13.235 c -8.22,6.23 -18.29,9.539 -28.61,9.402 -27.57,-0.098 -49.89,-22.422 -49.98,-49.988" /><path
         id="path30"
         style="fill:#040606;fill-opacity:1;fill-rule:nonzero;stroke:none"
         d="m 1353.73,162.84 h 10.67 V 66.9336 h -10.67 V 162.84" /><path
         id="path32"
         style="fill:#040606;fill-opacity:1;fill-rule:nonzero;stroke:none"
         d="m 1310.04,162.84 h -57.24 v -9.91 h 23.16 V 66.9531 h 10.67 V 152.93 h 23.41 v 9.91" /><path
         id="path34"
         style="fill:#040606;fill-opacity:1;fill-rule:nonzero;stroke:none"
         d="m 1209.85,162.84 h -49.73 V 66.9531 h 49.73 v 9.9024 h -39.06 v 37.6565 h 37.9 v 9.922 h -37.9 v 28.496 h 39.06 v 9.91" /><path
         id="path36"
         style="fill:#040606;fill-opacity:1;fill-rule:nonzero;stroke:none"
         d="m 915.371,93.0078 -10.426,-2.9219 c 3.028,-16.4453 18.817,-27.3242 35.25,-24.2968 14.129,2.5976 24.485,14.7656 24.793,29.1328 0,15.2621 -10.554,21.5041 -23.023,26.9731 l -6.367,2.793 c -6.489,2.937 -15.012,6.757 -15.012,15.019 0.176,8.406 7.141,15.078 15.559,14.902 0.117,-0.011 0.234,-0.011 0.347,-0.011 7.121,0.175 13.645,-3.946 16.543,-10.438 l 8.508,5.477 c -4.773,9.25 -14.375,15.011 -24.797,14.863 -13.855,0.938 -25.844,-9.539 -26.781,-23.398 -0.02,-0.332 -0.039,-0.672 -0.047,-1.004 0,-13.75 9.652,-19.473 20.844,-24.571 l 5.859,-2.539 c 8.906,-4.082 17.688,-7.883 17.688,-19.0817 -0.317,-10.5977 -9.121,-18.9454 -19.719,-18.711 -9.988,0.2344 -18.235,7.8711 -19.219,17.8125" /><path
         id="path38"
         style="fill:#040606;fill-opacity:1;fill-rule:nonzero;stroke:none"
         d="M 250.828,162.84 H 240.16 V 66.9531 h 10.668 v 47.0589 h 49.121 V 66.9531 h 10.66 V 162.84 h -10.66 v -38.914 h -49.121 v 38.914" /><path
         id="path40"
         style="fill:#040606;fill-opacity:1;fill-rule:nonzero;stroke:none"
         d="m 485.117,162.84 h 10.68 V 66.9336 h -10.68 V 162.84" /><path
         id="path42"
         style="fill:#040606;fill-opacity:1;fill-rule:nonzero;stroke:none"
         d="m 721.227,155.098 c -8.235,6.23 -18.305,9.539 -28.629,9.402 -27.399,0.195 -49.77,-21.844 -49.969,-49.246 -0.203,-27.3946 21.844,-49.7657 49.242,-49.961 0.238,0 0.484,0 0.727,0 10.289,0.0781 20.293,3.3593 28.629,9.3945 V 87.918 C 713.59,80.0469 703.18,75.4883 692.219,75.1953 c -21.93,0.418 -39.367,18.5352 -38.953,40.4567 0.406,21.243 17.457,38.399 38.699,38.946 11.07,-0.125 21.625,-4.715 29.262,-12.735 v 13.235" /><path
         id="path44"
         style="fill:#040606;fill-opacity:1;fill-rule:nonzero;stroke:none"
         d="M 1059.66,87.8125 1024.8,168.328 1005.35,66.9531 h 10.94 l 12.34,64.8709 h 0.25 l 30.78,-68.8162 30.9,68.8162 h 0.26 l 12.34,-64.8709 h 10.93 l -19.45,101.3749 -34.98,-80.5155" /><path
         id="path46"
         style="fill:#040606;fill-opacity:1;fill-rule:nonzero;stroke:none"
         d="m 381.836,104.082 16.41,38.418 16.031,-38.418 z M 398.5,167.43 354.246,66.9531 h 11.707 l 11.559,27.2149 h 40.965 l 11.324,-27.2149 h 11.824 L 398.5,167.43" /><path
         id="path48"
         style="fill:#040606;fill-opacity:1;fill-rule:nonzero;stroke:none"
         d="m 559.465,118.445 v 34.493 h 3.172 c 12.867,0 24.441,-1.524 24.441,-17.305 0,-14.891 -12.219,-17.188 -24.301,-17.188 z m 14.258,-8.515 c 13.828,0.547 24.597,12.199 24.054,26.027 -0.004,0.145 -0.011,0.293 -0.019,0.449 0,21.621 -16.914,26.434 -35.121,26.434 H 548.785 V 66.9531 h 10.68 v 42.0979 h 2.664 l 29.008,-42.0979 h 13.109 L 573.723,109.93" /><path
         id="path50"
         style="fill:#040606;fill-opacity:1;fill-rule:nonzero;stroke:none"
         d="m 813.715,75.1953 c -21.922,-0.2148 -39.867,17.3906 -40.078,39.3167 -0.207,21.922 17.394,39.871 39.316,40.086 21.93,0.207 39.875,-17.403 40.082,-39.325 0,-0.128 0,-0.253 0,-0.382 0.024,-21.7855 -17.531,-39.5004 -39.32,-39.6957 z m 0,89.3047 c -27.391,-0.215 -49.434,-22.586 -49.223,-49.98 0.211,-27.4028 22.586,-49.4341 49.981,-49.227 27.203,0.2031 49.16,22.2734 49.226,49.473 -0.152,27.5 -22.484,49.714 -49.984,49.734" /></g></g></svg>