<svg xmlns="http://www.w3.org/2000/svg" xmlns:xlink="http://www.w3.org/1999/xlink" width="336" zoomAndPan="magnify" viewBox="0 0 252 143.999998" height="192" preserveAspectRatio="xMidYMid meet" version="1.0"><defs><clipPath id="acfaa4f1d7"><path d="M 91.265625 11.742188 L 161 11.742188 L 161 132.496094 L 91.265625 132.496094 Z M 91.265625 11.742188 " clip-rule="nonzero"/></clipPath><clipPath id="6265f2e28a"><path d="M 116.085938 65.34375 C 116.085938 81.332031 118.777344 90.414062 123.765625 92.332031 C 126.574219 90.671875 129.394531 89.261719 132.207031 88.242188 C 134.636719 83.894531 135.914062 76.210938 135.914062 65.34375 C 135.914062 47.054688 132.464844 37.960938 125.9375 37.960938 C 119.535156 37.960938 116.085938 47.042969 116.085938 65.34375 M 107.644531 98.863281 C 112.375 98.863281 117.117188 96.054688 122.226562 93.234375 C 114.675781 92.203125 108.027344 88.492188 103.414062 83.121094 C 100.855469 84.664062 99.195312 87.34375 99.195312 90.414062 C 99.195312 95.023438 103.035156 98.863281 107.636719 98.863281 M 160.734375 109.613281 C 160.734375 122.152344 151.015625 132.253906 139.246094 132.253906 C 129.394531 132.253906 120.4375 125.601562 120.4375 117.792969 C 120.4375 112.292969 124.914062 107.8125 130.414062 107.8125 C 135.914062 107.8125 140.265625 112.304688 140.265625 117.804688 C 140.265625 120.492188 139.246094 123.054688 137.445312 124.84375 C 136.296875 125.992188 135.265625 127.53125 135.265625 128.8125 C 135.265625 130.863281 136.675781 131.503906 139.234375 131.503906 C 150.625 131.503906 159.964844 121.78125 159.964844 109.621094 C 159.964844 100.542969 152.925781 93.242188 144.355469 93.242188 C 129.257812 93.242188 123.246094 116.402344 107.636719 116.402344 C 98.554688 116.394531 91.265625 108.710938 91.265625 99.121094 C 91.265625 91.324219 96.257812 84.664062 103.035156 82.621094 C 99.066406 77.882812 96.765625 71.871094 96.765625 65.34375 C 96.765625 49.742188 109.816406 37.203125 125.9375 37.203125 C 130.285156 37.203125 134.507812 38.101562 138.214844 39.761719 C 133.996094 35.921875 128.617188 29.273438 128.617188 21.722656 C 128.617188 16.222656 133.097656 11.742188 138.597656 11.742188 C 144.097656 11.742188 148.445312 16.222656 148.445312 21.722656 C 148.445312 25.941406 145.636719 29.394531 141.925781 31.0625 C 139.117188 32.210938 137.574219 34.003906 137.574219 35.921875 C 137.574219 38.101562 139.625 40.273438 142.1875 41.933594 C 150.117188 47.054688 155.105469 55.492188 155.105469 65.34375 C 155.105469 74.304688 150.757812 82.351562 143.847656 87.472656 C 153.445312 89.773438 160.734375 98.863281 160.734375 109.601562 " clip-rule="nonzero"/></clipPath><clipPath id="cf5c242a2f"><path d="M 0.265625 0.742188 L 69.800781 0.742188 L 69.800781 121.480469 L 0.265625 121.480469 Z M 0.265625 0.742188 " clip-rule="nonzero"/></clipPath><clipPath id="3d1129586f"><path d="M 25.085938 54.34375 C 25.085938 70.332031 27.777344 79.414062 32.765625 81.332031 C 35.574219 79.671875 38.394531 78.261719 41.207031 77.242188 C 43.636719 72.894531 44.914062 65.210938 44.914062 54.34375 C 44.914062 36.054688 41.464844 26.960938 34.9375 26.960938 C 28.535156 26.960938 25.085938 36.042969 25.085938 54.34375 M 16.644531 87.863281 C 21.375 87.863281 26.117188 85.054688 31.226562 82.234375 C 23.675781 81.203125 17.027344 77.492188 12.414062 72.121094 C 9.855469 73.664062 8.195312 76.34375 8.195312 79.414062 C 8.195312 84.023438 12.035156 87.863281 16.636719 87.863281 M 69.734375 98.613281 C 69.734375 111.152344 60.015625 121.253906 48.246094 121.253906 C 38.394531 121.253906 29.4375 114.601562 29.4375 106.792969 C 29.4375 101.292969 33.914062 96.8125 39.414062 96.8125 C 44.914062 96.8125 49.265625 101.304688 49.265625 106.804688 C 49.265625 109.492188 48.246094 112.054688 46.445312 113.84375 C 45.296875 114.992188 44.265625 116.53125 44.265625 117.8125 C 44.265625 119.863281 45.675781 120.503906 48.234375 120.503906 C 59.625 120.503906 68.964844 110.78125 68.964844 98.621094 C 68.964844 89.542969 61.925781 82.242188 53.355469 82.242188 C 38.257812 82.242188 32.246094 105.402344 16.636719 105.402344 C 7.554688 105.394531 0.265625 97.710938 0.265625 88.121094 C 0.265625 80.324219 5.257812 73.664062 12.035156 71.621094 C 8.066406 66.882812 5.765625 60.871094 5.765625 54.34375 C 5.765625 38.742188 18.816406 26.203125 34.9375 26.203125 C 39.285156 26.203125 43.507812 27.101562 47.214844 28.761719 C 42.996094 24.921875 37.617188 18.273438 37.617188 10.722656 C 37.617188 5.222656 42.097656 0.742188 47.597656 0.742188 C 53.097656 0.742188 57.445312 5.222656 57.445312 10.722656 C 57.445312 14.941406 54.636719 18.394531 50.925781 20.0625 C 48.117188 21.210938 46.574219 23.003906 46.574219 24.921875 C 46.574219 27.101562 48.625 29.273438 51.1875 30.933594 C 59.117188 36.054688 64.105469 44.492188 64.105469 54.34375 C 64.105469 63.304688 59.757812 71.351562 52.847656 76.472656 C 62.445312 78.773438 69.734375 87.863281 69.734375 98.601562 " clip-rule="nonzero"/></clipPath><clipPath id="d7563ea6c5"><rect x="0" width="70" y="0" height="122"/></clipPath></defs><rect x="-25.2" width="302.4" fill="#ffffff" y="-14.4" height="172.799997" fill-opacity="1"/><rect x="-25.2" width="302.4" fill="#eed7b6" y="-14.4" height="172.799997" fill-opacity="1"/><g clip-path="url(#acfaa4f1d7)"><g clip-path="url(#6265f2e28a)"><g transform="matrix(1, 0, 0, 1, 91, 11)"><g clip-path="url(#d7563ea6c5)"><g clip-path="url(#cf5c242a2f)"><g clip-path="url(#3d1129586f)"><path fill="#d15556" d="M 0.265625 0.742188 L 69.734375 0.742188 L 69.734375 121.226562 L 0.265625 121.226562 Z M 0.265625 0.742188 " fill-opacity="1" fill-rule="nonzero"/></g></g></g></g></g></g></svg>