<?xml version="1.0" encoding="UTF-8"?>
<svg id="Camada_1" data-name="Camada 1" xmlns="http://www.w3.org/2000/svg" viewBox="0 0 1080 1080">
  <defs>
    <style>
      .cls-1 {
        fill: #f2dcbc;
      }
    </style>
  </defs>
  <path class="cls-1" d="M727.89,743.46c0,67.82-52.6,122.49-116.26,122.49-53.29,0-101.73-35.99-101.73-78.2,0-29.76,24.22-53.98,53.98-53.98s53.29,24.22,53.29,53.98c0,14.53-5.54,28.37-15.23,38.06-6.22,6.23-11.76,14.53-11.76,21.45,0,11.07,7.62,14.53,21.46,14.53,61.59,0,112.11-52.6,112.11-118.34,0-49.14-38.06-88.58-84.43-88.58-81.66,0-114.18,125.25-198.61,125.25-49.14,0-88.58-41.52-88.58-93.42,0-42.21,26.99-78.2,63.67-89.27-21.45-25.6-33.91-58.13-33.91-93.42,0-84.43,70.59-152.25,157.78-152.25,23.53,0,46.37,4.85,66.44,13.84-22.83-20.76-51.9-56.74-51.9-97.57,0-29.76,24.22-53.98,53.98-53.98s53.29,24.22,53.29,53.98c0,22.83-15.23,41.52-35.3,50.52-15.22,6.23-23.53,15.92-23.53,26.3,0,11.76,11.07,23.53,24.92,32.53,42.9,27.68,69.89,73.35,69.89,126.64,0,48.44-23.53,92.04-60.9,119.72,51.91,12.46,91.35,61.59,91.35,119.72ZM440.69,685.33c25.6,0,51.21-15.23,78.89-30.45-40.83-5.54-76.81-25.61-101.73-54.67-13.84,8.31-22.84,22.83-22.84,39.44,0,24.92,20.76,45.68,45.68,45.68ZM486.37,504.01c0,86.5,14.53,135.64,41.52,146.02,15.23-8.99,30.45-16.61,45.68-22.15,13.15-23.53,20.07-65.05,20.07-123.87,0-98.96-18.69-148.1-53.98-148.1s-53.28,49.14-53.28,148.1Z"/>
</svg>