<?xml version="1.0" encoding="UTF-8"?>
<svg id="Camada_1" data-name="Camada 1" xmlns="http://www.w3.org/2000/svg" viewBox="0 0 1080 1080">
  <defs>
    <style>
      .cls-1 {
        fill: #f2dcbc;
      }
    </style>
  </defs>
  <g>
    <path class="cls-1" d="M297.48,637.9c0,32.54-25.23,58.77-55.78,58.77-25.57,0-48.81-17.26-48.81-37.52,0-14.28,11.62-25.9,25.9-25.9s25.57,11.62,25.57,25.9c0,6.97-2.66,13.61-7.31,18.26-2.99,2.99-5.64,6.97-5.64,10.29,0,5.31,3.65,6.97,10.29,6.97,29.55,0,53.79-25.23,53.79-56.77,0-23.57-18.26-42.5-40.51-42.5-39.18,0-54.78,60.09-95.29,60.09-23.57,0-42.5-19.92-42.5-44.82,0-20.25,12.95-37.52,30.54-42.83-10.29-12.28-16.27-27.89-16.27-44.82,0-40.51,33.87-73.05,75.7-73.05,11.29,0,22.25,2.33,31.87,6.64-10.96-9.96-24.9-27.22-24.9-46.81,0-14.28,11.62-25.9,25.9-25.9s25.57,11.62,25.57,25.9c0,10.96-7.31,19.92-16.93,24.24-7.3,2.99-11.29,7.64-11.29,12.62,0,5.64,5.31,11.29,11.95,15.61,20.58,13.28,33.53,35.19,33.53,60.76,0,23.24-11.29,44.16-29.22,57.44,24.9,5.98,43.83,29.55,43.83,57.44ZM159.69,610.01c12.28,0,24.57-7.31,37.85-14.61-19.59-2.66-36.85-12.29-48.81-26.23-6.64,3.98-10.96,10.96-10.96,18.92,0,11.95,9.96,21.91,21.91,21.91ZM181.6,523.02c0,41.5,6.97,65.07,19.92,70.05,7.31-4.31,14.61-7.97,21.91-10.62,6.31-11.29,9.63-31.21,9.63-59.43,0-47.48-8.97-71.05-25.9-71.05s-25.56,23.57-25.56,71.05Z"/>
    <path class="cls-1" d="M470.12,607.68v1.99l-56.77,8.3h-1c-2.99,0-5.64-2.66-5.64-5.64v-4.98c-30.54,15.61-87.32,21.25-87.32-34.86v-92.63c0-8.3-5.98-14.94-13.61-16.27v-1.99l56.78-8.3h1c3.32,0,5.64,2.32,5.64,5.64v108.9c0,16.93-17.26,21.25-17.26,33.53,0,6.97,9.63,11.62,22.58,11.62,16.6,0,30.21-6.64,32.21-7.64v-125.5c0-8.3-5.98-14.94-13.61-16.27v-1.99l56.77-8.3h1c3.32,0,5.64,2.32,5.64,5.64v132.48c0,7.97,5.98,14.94,13.61,16.27Z"/>
    <path class="cls-1" d="M630.51,607.68v1.99l-57.11,8.3h-.67c-3.32,0-5.97-2.66-5.97-5.98v-8.3c-7.97,5.98-21.58,14.28-40.18,14.28-20.92,0-39.51-11.95-44.49-30.54-5.31-18.92,5.31-38.51,23.57-49.8,28.55-17.93,106.25-29.22,106.25-54.78,0-8.97-8.97-18.59-19.59-23.9-12.95-6.31-28.89-8.63-45.15-5.98-11.95,1.66-18.93,5.64-18.93,12.62,0,12.28,14.28,16.6,14.28,31.87,0,14.28-11.62,25.57-25.9,25.57s-25.57-11.29-25.57-25.57c0-25.9,32.21-43.16,55.78-46.48,17.26-2.66,33.87-.33,46.48,6.31,12.62,6.31,23.57,17.6,23.57,33.87v100.27c0,7.97,5.98,14.94,13.61,16.27ZM566.77,517.71v-1.66c-13.61,6.31-33.87,16.93-35.86,44.82-1,15.94,2.99,28.22,9.96,35.86,7.31,7.97,18.59,9.96,25.9,4.65v-83.67Z"/>
    <path class="cls-1" d="M804.73,528.8c0,75.23-71.36,87.82-100.64,87.82v72.67c0,3.68-3.01,7.02-7.02,7.02h-56.84v-2.01c7.69-1.67,13.71-8.36,13.71-16.72v-199.95c0-8.36-6.02-15.05-13.71-16.38v-2.01l57.18-8.36h1c3.34,0,5.68,2.68,5.68,5.69v1.67c7.02-3.68,15.05-6.35,24.08-7.36,36.78-3.68,76.57,27.75,76.57,77.91ZM755.25,531.81c0-41.13-17.72-74.23-39.79-74.23-4.01,0-7.69,1-11.37,2.68v153.36c25.16,0,51.16-20.28,51.16-81.81Z"/>
    <path class="cls-1" d="M962.81,607.68v1.99l-57.11,8.3h-.67c-3.32,0-5.97-2.66-5.97-5.98v-8.3c-7.97,5.98-21.58,14.28-40.18,14.28-20.92,0-39.51-11.95-44.49-30.54-5.31-18.92,5.31-38.51,23.57-49.8,28.55-17.93,106.25-29.22,106.25-54.78,0-8.97-8.97-18.59-19.59-23.9-12.95-6.31-28.89-8.63-45.15-5.98-11.95,1.66-18.93,5.64-18.93,12.62,0,12.28,14.28,16.6,14.28,31.87,0,14.28-11.62,25.57-25.9,25.57s-25.56-11.29-25.56-25.57c0-25.9,32.21-43.16,55.78-46.48,17.26-2.66,33.87-.33,46.48,6.31,12.62,6.31,23.57,17.6,23.57,33.87v100.27c0,7.97,5.97,14.94,13.61,16.27ZM899.06,517.71v-1.66c-13.61,6.31-33.87,16.93-35.86,44.82-1,15.94,2.99,28.22,9.96,35.86,7.31,7.97,18.59,9.96,25.9,4.65v-83.67Z"/>
  </g>
  <g>
    <path class="cls-1" d="M336.49,418.55v6.39h-30.76v-41.02h29.94v6.39h-22.32v10.66h19.81v6.27h-19.81v11.31h23.15Z"/>
    <path class="cls-1" d="M393.06,420.6l2.64-5.92c3.28,2.64,8.5,4.51,13.54,4.51,6.39,0,9.08-2.29,9.08-5.33,0-8.85-24.38-3.05-24.38-18.28,0-6.62,5.27-12.25,16.52-12.25,4.92,0,10.08,1.29,13.65,3.63l-2.4,5.92c-3.69-2.17-7.73-3.22-11.31-3.22-6.33,0-8.91,2.46-8.91,5.57,0,8.73,24.32,3.05,24.32,18.11,0,6.56-5.33,12.19-16.58,12.19-6.39,0-12.77-1.99-16.17-4.92Z"/>
    <path class="cls-1" d="M519.25,398.51c0,9.02-6.68,14.59-17.46,14.59h-9.26v11.84h-7.62v-41.02h16.88c10.78,0,17.46,5.51,17.46,14.59ZM511.57,398.51c0-5.16-3.46-8.14-10.14-8.14h-8.91v16.29h8.91c6.68,0,10.14-2.99,10.14-8.14Z"/>
    <path class="cls-1" d="M602.96,415.45h-20.51l-4.04,9.49h-7.85l18.46-41.02h7.5l18.52,41.02h-7.97l-4.1-9.49ZM600.44,409.47l-7.73-17.93-7.68,17.93h15.41Z"/>
    <path class="cls-1" d="M701.54,413.98l4.92,4.69c-3.69,4.28-9.14,6.68-15.59,6.86l-.59,2.29c3.46.41,5.1,2.4,5.1,4.92,0,3.4-3.16,5.57-7.97,5.57-2.11,0-3.93-.41-5.39-1.23l1.35-3.46c1.23.64,2.52.94,3.98.94,2.17,0,3.11-.82,3.11-2.11,0-1.11-.88-1.93-3.11-1.93h-1.82l1.35-5.16c-10.84-1.41-18.63-9.79-18.63-20.92,0-12.25,9.38-21.09,21.97-21.09,6.68,0,12.42,2.4,16.23,6.86l-4.92,4.63c-2.99-3.22-6.68-4.8-10.96-4.8-8.5,0-14.65,5.98-14.65,14.41s6.15,14.41,14.65,14.41c4.28,0,7.97-1.58,10.96-4.86Z"/>
    <path class="cls-1" d="M761.52,404.43c0-12.13,9.38-21.09,22.09-21.09s22.09,8.91,22.09,21.09-9.38,21.09-22.09,21.09-22.09-8.97-22.09-21.09ZM798.02,404.43c0-8.38-6.15-14.41-14.41-14.41s-14.41,6.04-14.41,14.41,6.15,14.41,14.41,14.41,14.41-6.04,14.41-14.41Z"/>
  </g>
</svg>