<svg xmlns="http://www.w3.org/2000/svg" xmlns:xlink="http://www.w3.org/1999/xlink" width="336" zoomAndPan="magnify" viewBox="0 0 252 143.999998" height="192" preserveAspectRatio="xMidYMid meet" version="1.0"><defs><clipPath id="aee847e942"><path d="M 56.519531 46.363281 L 86.46875 46.363281 L 86.46875 97.875 L 56.519531 97.875 Z M 56.519531 46.363281 " clip-rule="nonzero"/></clipPath><clipPath id="3a26fa5b53"><path d="M 67.277344 69.222656 C 67.277344 76.023438 68.414062 79.882812 70.535156 80.703125 C 71.734375 79.992188 72.925781 79.390625 74.125 78.960938 C 75.15625 77.113281 75.707031 73.851562 75.707031 69.222656 C 75.707031 61.441406 74.234375 57.582031 71.464844 57.582031 C 68.746094 57.582031 67.277344 61.441406 67.277344 69.222656 M 63.6875 83.472656 C 65.695312 83.472656 67.707031 82.273438 69.886719 81.082031 C 66.675781 80.640625 63.847656 79.070312 61.886719 76.78125 C 60.796875 77.429688 60.085938 78.570312 60.085938 79.882812 C 60.085938 81.839844 61.714844 83.472656 63.675781 83.472656 M 86.253906 88.042969 C 86.253906 93.371094 82.125 97.671875 77.117188 97.671875 C 72.925781 97.671875 69.117188 94.839844 69.117188 91.523438 C 69.117188 89.179688 71.015625 87.28125 73.355469 87.28125 C 75.695312 87.28125 77.546875 89.179688 77.546875 91.523438 C 77.546875 92.660156 77.117188 93.75 76.347656 94.511719 C 75.855469 95 75.425781 95.652344 75.425781 96.203125 C 75.425781 97.070312 76.027344 97.339844 77.117188 97.339844 C 81.957031 97.339844 85.925781 93.203125 85.925781 88.042969 C 85.925781 84.179688 82.9375 81.082031 79.285156 81.082031 C 72.867188 81.082031 70.304688 90.929688 63.675781 90.929688 C 59.824219 90.921875 56.726562 87.660156 56.726562 83.582031 C 56.726562 80.261719 58.847656 77.429688 61.734375 76.5625 C 60.046875 74.550781 59.066406 71.992188 59.066406 69.222656 C 59.066406 62.582031 64.617188 57.25 71.464844 57.25 C 73.316406 57.25 75.105469 57.632812 76.6875 58.339844 C 74.886719 56.710938 72.605469 53.882812 72.605469 50.671875 C 72.605469 48.332031 74.507812 46.433594 76.847656 46.433594 C 79.1875 46.433594 81.046875 48.332031 81.046875 50.671875 C 81.046875 52.460938 79.847656 53.933594 78.265625 54.640625 C 77.066406 55.132812 76.414062 55.890625 76.414062 56.710938 C 76.414062 57.640625 77.285156 58.5625 78.375 59.273438 C 81.746094 61.453125 83.867188 65.042969 83.867188 69.230469 C 83.867188 73.042969 82.015625 76.472656 79.074219 78.640625 C 83.15625 79.621094 86.253906 83.480469 86.253906 88.050781 " clip-rule="nonzero"/></clipPath><clipPath id="5a9b2e19ee"><path d="M 0.640625 0.363281 L 30.398438 0.363281 L 30.398438 51.679688 L 0.640625 51.679688 Z M 0.640625 0.363281 " clip-rule="nonzero"/></clipPath><clipPath id="ffe7e06740"><path d="M 11.277344 23.222656 C 11.277344 30.023438 12.414062 33.882812 14.535156 34.703125 C 15.734375 33.992188 16.925781 33.390625 18.125 32.960938 C 19.15625 31.113281 19.707031 27.851562 19.707031 23.222656 C 19.707031 15.441406 18.234375 11.582031 15.464844 11.582031 C 12.746094 11.582031 11.277344 15.441406 11.277344 23.222656 M 7.6875 37.472656 C 9.695312 37.472656 11.707031 36.273438 13.886719 35.082031 C 10.675781 34.640625 7.847656 33.070312 5.886719 30.78125 C 4.796875 31.429688 4.085938 32.570312 4.085938 33.882812 C 4.085938 35.839844 5.714844 37.472656 7.675781 37.472656 M 30.253906 42.042969 C 30.253906 47.371094 26.125 51.671875 21.117188 51.671875 C 16.925781 51.671875 13.117188 48.839844 13.117188 45.523438 C 13.117188 43.179688 15.015625 41.28125 17.355469 41.28125 C 19.695312 41.28125 21.546875 43.179688 21.546875 45.523438 C 21.546875 46.660156 21.117188 47.75 20.347656 48.511719 C 19.855469 49 19.425781 49.652344 19.425781 50.203125 C 19.425781 51.070312 20.027344 51.339844 21.117188 51.339844 C 25.957031 51.339844 29.925781 47.203125 29.925781 42.042969 C 29.925781 38.179688 26.9375 35.082031 23.285156 35.082031 C 16.867188 35.082031 14.304688 44.929688 7.675781 44.929688 C 3.824219 44.921875 0.726562 41.660156 0.726562 37.582031 C 0.726562 34.261719 2.847656 31.429688 5.734375 30.5625 C 4.046875 28.550781 3.066406 25.992188 3.066406 23.222656 C 3.066406 16.582031 8.617188 11.25 15.464844 11.25 C 17.316406 11.25 19.105469 11.632812 20.6875 12.339844 C 18.886719 10.710938 16.605469 7.882812 16.605469 4.671875 C 16.605469 2.332031 18.507812 0.433594 20.847656 0.433594 C 23.1875 0.433594 25.046875 2.332031 25.046875 4.671875 C 25.046875 6.460938 23.847656 7.933594 22.265625 8.640625 C 21.066406 9.132812 20.414062 9.890625 20.414062 10.710938 C 20.414062 11.640625 21.285156 12.5625 22.375 13.273438 C 25.746094 15.453125 27.867188 19.042969 27.867188 23.230469 C 27.867188 27.042969 26.015625 30.472656 23.074219 32.640625 C 27.15625 33.621094 30.253906 37.480469 30.253906 42.050781 " clip-rule="nonzero"/></clipPath><clipPath id="616fe1c916"><rect x="0" width="31" y="0" height="52"/></clipPath><clipPath id="3d7162b134"><path d="M 87.425781 57.625 L 114.738281 57.625 L 114.738281 84.9375 L 87.425781 84.9375 Z M 87.425781 57.625 " clip-rule="nonzero"/></clipPath><clipPath id="60f0e7a95a"><path d="M 114.546875 83.089844 L 114.546875 83.421875 L 105.246094 84.78125 L 105.085938 84.78125 C 104.597656 84.78125 104.15625 84.339844 104.15625 83.863281 L 104.15625 83.03125 C 99.144531 85.589844 89.847656 86.511719 89.847656 77.320312 L 89.847656 62.140625 C 89.847656 60.78125 88.867188 59.691406 87.617188 59.472656 L 87.617188 59.140625 L 96.914062 57.78125 L 97.074219 57.78125 C 97.617188 57.78125 97.996094 58.160156 97.996094 58.710938 L 97.996094 76.5625 C 97.996094 79.332031 95.164062 80.042969 95.164062 82.050781 C 95.164062 83.191406 96.746094 83.953125 98.867188 83.953125 C 101.585938 83.953125 103.816406 82.863281 104.144531 82.703125 L 104.144531 62.140625 C 104.144531 60.78125 103.164062 59.691406 101.914062 59.472656 L 101.914062 59.140625 L 111.214844 57.78125 L 111.375 57.78125 C 111.914062 57.78125 112.296875 58.160156 112.296875 58.710938 L 112.296875 80.410156 C 112.296875 81.722656 113.277344 82.863281 114.527344 83.082031 " clip-rule="nonzero"/></clipPath><clipPath id="117174cb83"><path d="M 0.601562 0.625 L 27.71875 0.625 L 27.71875 27.9375 L 0.601562 27.9375 Z M 0.601562 0.625 " clip-rule="nonzero"/></clipPath><clipPath id="ed73d427c6"><path d="M 27.546875 26.089844 L 27.546875 26.421875 L 18.246094 27.78125 L 18.085938 27.78125 C 17.597656 27.78125 17.15625 27.339844 17.15625 26.863281 L 17.15625 26.03125 C 12.144531 28.589844 2.847656 29.511719 2.847656 20.320312 L 2.847656 5.140625 C 2.847656 3.78125 1.867188 2.691406 0.617188 2.472656 L 0.617188 2.140625 L 9.914062 0.78125 L 10.074219 0.78125 C 10.617188 0.78125 10.996094 1.160156 10.996094 1.710938 L 10.996094 19.5625 C 10.996094 22.332031 8.164062 23.042969 8.164062 25.050781 C 8.164062 26.191406 9.746094 26.953125 11.867188 26.953125 C 14.585938 26.953125 16.816406 25.863281 17.144531 25.703125 L 17.144531 5.140625 C 17.144531 3.78125 16.164062 2.691406 14.914062 2.472656 L 14.914062 2.140625 L 24.214844 0.78125 L 24.375 0.78125 C 24.914062 0.78125 25.296875 1.160156 25.296875 1.710938 L 25.296875 23.410156 C 25.296875 24.722656 26.277344 25.863281 27.527344 26.082031 " clip-rule="nonzero"/></clipPath><clipPath id="bd23f73e14"><rect x="0" width="28" y="0" height="28"/></clipPath><clipPath id="f71f6dcd4c"><path d="M 116.175781 57.144531 L 140.855469 57.144531 L 140.855469 84.9375 L 116.175781 84.9375 Z M 116.175781 57.144531 " clip-rule="nonzero"/></clipPath><clipPath id="35bd769f5e"><path d="M 130.386719 68.351562 L 130.386719 68.082031 C 128.15625 69.113281 124.835938 70.851562 124.503906 75.421875 C 124.34375 78.03125 124.996094 80.042969 126.136719 81.300781 C 127.335938 82.613281 129.1875 82.929688 130.375 82.0625 Z M 140.824219 83.089844 L 140.824219 83.421875 L 131.464844 84.78125 L 131.355469 84.78125 C 130.816406 84.78125 130.375 84.351562 130.375 83.800781 L 130.375 82.429688 C 129.066406 83.410156 126.835938 84.773438 123.796875 84.773438 C 120.367188 84.773438 117.324219 82.8125 116.503906 79.773438 C 115.636719 76.671875 117.375 73.460938 120.367188 71.613281 C 125.046875 68.671875 137.777344 66.820312 137.777344 62.632812 C 137.777344 61.160156 136.304688 59.582031 134.566406 58.710938 C 132.445312 57.683594 129.835938 57.292969 127.164062 57.730469 C 125.207031 58 124.066406 58.660156 124.066406 59.800781 C 124.066406 61.8125 126.40625 62.523438 126.40625 65.023438 C 126.40625 67.363281 124.503906 69.210938 122.164062 69.210938 C 119.824219 69.210938 117.976562 67.363281 117.976562 65.023438 C 117.976562 60.78125 123.253906 57.953125 127.117188 57.402344 C 129.945312 56.960938 132.664062 57.351562 134.734375 58.433594 C 136.804688 59.460938 138.59375 61.3125 138.59375 63.980469 L 138.59375 80.421875 C 138.59375 81.730469 139.574219 82.871094 140.824219 83.089844 " clip-rule="nonzero"/></clipPath><clipPath id="4ba0993d43"><path d="M 0.175781 0.144531 L 24.855469 0.144531 L 24.855469 27.9375 L 0.175781 27.9375 Z M 0.175781 0.144531 " clip-rule="nonzero"/></clipPath><clipPath id="388c181236"><path d="M 14.386719 11.351562 L 14.386719 11.082031 C 12.15625 12.113281 8.835938 13.851562 8.503906 18.421875 C 8.34375 21.03125 8.996094 23.042969 10.136719 24.300781 C 11.335938 25.613281 13.1875 25.929688 14.375 25.0625 Z M 24.824219 26.089844 L 24.824219 26.421875 L 15.464844 27.78125 L 15.355469 27.78125 C 14.816406 27.78125 14.375 27.351562 14.375 26.800781 L 14.375 25.429688 C 13.066406 26.410156 10.835938 27.773438 7.796875 27.773438 C 4.367188 27.773438 1.324219 25.8125 0.503906 22.773438 C -0.363281 19.671875 1.375 16.460938 4.367188 14.613281 C 9.046875 11.671875 21.777344 9.820312 21.777344 5.632812 C 21.777344 4.160156 20.304688 2.582031 18.566406 1.710938 C 16.445312 0.683594 13.835938 0.292969 11.164062 0.730469 C 9.207031 1 8.066406 1.660156 8.066406 2.800781 C 8.066406 4.8125 10.40625 5.523438 10.40625 8.023438 C 10.40625 10.363281 8.503906 12.210938 6.164062 12.210938 C 3.824219 12.210938 1.976562 10.363281 1.976562 8.023438 C 1.976562 3.78125 7.253906 0.953125 11.117188 0.402344 C 13.945312 -0.0390625 16.664062 0.351562 18.734375 1.433594 C 20.804688 2.460938 22.59375 4.3125 22.59375 6.980469 L 22.59375 23.421875 C 22.59375 24.730469 23.574219 25.871094 24.824219 26.089844 " clip-rule="nonzero"/></clipPath><clipPath id="f4072df0cb"><rect x="0" width="25" y="0" height="28"/></clipPath><clipPath id="bb32264de8"><path d="M 142.292969 57.144531 L 169.605469 57.144531 L 169.605469 97.636719 L 142.292969 97.636719 Z M 142.292969 57.144531 " clip-rule="nonzero"/></clipPath><clipPath id="51e53cfebe"><path d="M 161.265625 70.660156 C 161.265625 63.921875 158.367188 58.5 154.746094 58.5 C 154.085938 58.5 153.484375 58.660156 152.886719 58.941406 L 152.886719 84.0625 C 157.003906 84.0625 161.265625 80.742188 161.265625 70.660156 M 169.375 70.171875 C 169.375 82.5 157.6875 84.5625 152.886719 84.5625 L 152.886719 96.460938 C 152.886719 97.0625 152.394531 97.613281 151.734375 97.613281 L 142.414062 97.613281 L 142.414062 97.28125 C 143.675781 97.011719 144.664062 95.910156 144.664062 94.542969 L 144.664062 61.78125 C 144.664062 60.410156 143.675781 59.3125 142.414062 59.101562 L 142.414062 58.773438 L 151.785156 57.402344 L 151.957031 57.402344 C 152.503906 57.402344 152.886719 57.839844 152.886719 58.332031 L 152.886719 58.601562 C 154.035156 58 155.355469 57.5625 156.835938 57.390625 C 162.855469 56.792969 169.375 61.941406 169.375 70.160156 " clip-rule="nonzero"/></clipPath><clipPath id="9603a27e1e"><path d="M 0.320312 0.144531 L 27.441406 0.144531 L 27.441406 40.636719 L 0.320312 40.636719 Z M 0.320312 0.144531 " clip-rule="nonzero"/></clipPath><clipPath id="98a6ffe22d"><path d="M 19.265625 13.660156 C 19.265625 6.921875 16.367188 1.5 12.746094 1.5 C 12.085938 1.5 11.484375 1.660156 10.886719 1.941406 L 10.886719 27.0625 C 15.003906 27.0625 19.265625 23.742188 19.265625 13.660156 M 27.375 13.171875 C 27.375 25.5 15.6875 27.5625 10.886719 27.5625 L 10.886719 39.460938 C 10.886719 40.0625 10.394531 40.613281 9.734375 40.613281 L 0.414062 40.613281 L 0.414062 40.28125 C 1.675781 40.011719 2.664062 38.910156 2.664062 37.542969 L 2.664062 4.78125 C 2.664062 3.410156 1.675781 2.3125 0.414062 2.101562 L 0.414062 1.773438 L 9.785156 0.402344 L 9.957031 0.402344 C 10.503906 0.402344 10.886719 0.839844 10.886719 1.332031 L 10.886719 1.601562 C 12.035156 1 13.355469 0.5625 14.835938 0.390625 C 20.855469 -0.207031 27.375 4.941406 27.375 13.160156 " clip-rule="nonzero"/></clipPath><clipPath id="7538ce77cc"><rect x="0" width="28" y="0" height="41"/></clipPath><clipPath id="15fa3427d0"><path d="M 170.5625 57.144531 L 195.480469 57.144531 L 195.480469 84.9375 L 170.5625 84.9375 Z M 170.5625 57.144531 " clip-rule="nonzero"/></clipPath><clipPath id="c35ddd6123"><path d="M 184.824219 68.351562 L 184.824219 68.082031 C 182.59375 69.113281 179.277344 70.851562 178.945312 75.421875 C 178.785156 78.03125 179.433594 80.042969 180.574219 81.300781 C 181.777344 82.613281 183.625 82.929688 184.816406 82.0625 Z M 195.265625 83.089844 L 195.265625 83.421875 L 185.90625 84.78125 L 185.796875 84.78125 C 185.253906 84.78125 184.816406 84.351562 184.816406 83.800781 L 184.816406 82.429688 C 183.503906 83.410156 181.277344 84.773438 178.234375 84.773438 C 174.804688 84.773438 171.765625 82.8125 170.945312 79.773438 C 170.074219 76.671875 171.816406 73.460938 174.804688 71.613281 C 179.484375 68.671875 192.214844 66.820312 192.214844 62.632812 C 192.214844 61.160156 190.746094 59.582031 189.003906 58.710938 C 186.886719 57.683594 184.277344 57.292969 181.605469 57.730469 C 179.644531 58 178.503906 58.660156 178.503906 59.800781 C 178.503906 61.8125 180.84375 62.523438 180.84375 65.023438 C 180.84375 67.363281 178.945312 69.210938 176.605469 69.210938 C 174.265625 69.210938 172.414062 67.363281 172.414062 65.023438 C 172.414062 60.78125 177.695312 57.953125 181.554688 57.402344 C 184.386719 56.960938 187.105469 57.351562 189.175781 58.433594 C 191.246094 59.460938 193.035156 61.3125 193.035156 63.980469 L 193.035156 80.421875 C 193.035156 81.730469 194.015625 82.871094 195.265625 83.089844 " clip-rule="nonzero"/></clipPath><clipPath id="de884dc93e"><path d="M 0.5625 0.144531 L 25.359375 0.144531 L 25.359375 27.9375 L 0.5625 27.9375 Z M 0.5625 0.144531 " clip-rule="nonzero"/></clipPath><clipPath id="4852711521"><path d="M 14.824219 11.351562 L 14.824219 11.082031 C 12.59375 12.113281 9.277344 13.851562 8.945312 18.421875 C 8.785156 21.03125 9.433594 23.042969 10.574219 24.300781 C 11.777344 25.613281 13.625 25.929688 14.816406 25.0625 Z M 25.265625 26.089844 L 25.265625 26.421875 L 15.90625 27.78125 L 15.796875 27.78125 C 15.253906 27.78125 14.816406 27.351562 14.816406 26.800781 L 14.816406 25.429688 C 13.503906 26.410156 11.277344 27.773438 8.234375 27.773438 C 4.804688 27.773438 1.765625 25.8125 0.945312 22.773438 C 0.0742188 19.671875 1.816406 16.460938 4.804688 14.613281 C 9.484375 11.671875 22.214844 9.820312 22.214844 5.632812 C 22.214844 4.160156 20.746094 2.582031 19.003906 1.710938 C 16.886719 0.683594 14.277344 0.292969 11.605469 0.730469 C 9.644531 1 8.503906 1.660156 8.503906 2.800781 C 8.503906 4.8125 10.84375 5.523438 10.84375 8.023438 C 10.84375 10.363281 8.945312 12.210938 6.605469 12.210938 C 4.265625 12.210938 2.414062 10.363281 2.414062 8.023438 C 2.414062 3.78125 7.695312 0.953125 11.554688 0.402344 C 14.386719 -0.0390625 17.105469 0.351562 19.175781 1.433594 C 21.246094 2.460938 23.035156 4.3125 23.035156 6.980469 L 23.035156 23.421875 C 23.035156 24.730469 24.015625 25.871094 25.265625 26.089844 " clip-rule="nonzero"/></clipPath><clipPath id="0fafe225ed"><rect x="0" width="26" y="0" height="28"/></clipPath><clipPath id="c44890882d"><path d="M 87.617188 46.433594 L 92.527344 46.433594 L 92.527344 47.472656 L 87.617188 47.472656 Z M 87.617188 47.472656 L 88.867188 47.472656 L 88.867188 49.222656 L 87.617188 49.222656 Z M 87.617188 49.222656 L 92.117188 49.222656 L 92.117188 50.25 L 87.617188 50.25 Z M 87.617188 50.25 L 88.867188 50.25 L 88.867188 52.101562 L 87.617188 52.101562 Z M 87.617188 52.101562 L 92.65625 52.101562 L 92.65625 53.152344 L 87.617188 53.152344 Z M 87.617188 52.101562 " clip-rule="nonzero"/></clipPath><clipPath id="f8f52ea1d0"><path d="M 0.617188 0.433594 L 5.527344 0.433594 L 5.527344 1.472656 L 0.617188 1.472656 Z M 0.617188 1.472656 L 1.867188 1.472656 L 1.867188 3.222656 L 0.617188 3.222656 Z M 0.617188 3.222656 L 5.117188 3.222656 L 5.117188 4.25 L 0.617188 4.25 Z M 0.617188 4.25 L 1.867188 4.25 L 1.867188 6.101562 L 0.617188 6.101562 Z M 0.617188 6.101562 L 5.65625 6.101562 L 5.65625 7.152344 L 0.617188 7.152344 Z M 0.617188 6.101562 " clip-rule="nonzero"/></clipPath><clipPath id="07192eb195"><rect x="0" width="6" y="0" height="8"/></clipPath><clipPath id="ccd4f0481d"><path d="M 101.800781 46.125 L 107.3125 46.125 L 107.3125 53.3125 L 101.800781 53.3125 Z M 101.800781 46.125 " clip-rule="nonzero"/></clipPath><clipPath id="c7263c4842"><path d="M 101.925781 52.441406 L 102.355469 51.472656 C 102.894531 51.902344 103.746094 52.210938 104.574219 52.210938 C 105.625 52.210938 106.066406 51.839844 106.066406 51.339844 C 106.066406 49.890625 102.074219 50.839844 102.074219 48.339844 C 102.074219 47.261719 102.9375 46.332031 104.785156 46.332031 C 105.597656 46.332031 106.4375 46.542969 107.027344 46.933594 L 106.636719 47.902344 C 106.027344 47.550781 105.367188 47.371094 104.785156 47.371094 C 103.746094 47.371094 103.324219 47.773438 103.324219 48.28125 C 103.324219 49.710938 107.304688 48.78125 107.304688 51.25 C 107.304688 52.332031 106.4375 53.25 104.585938 53.25 C 103.535156 53.25 102.496094 52.921875 101.9375 52.441406 " clip-rule="nonzero"/></clipPath><clipPath id="f4f404368e"><path d="M 0.800781 0.320312 L 6.3125 0.320312 L 6.3125 7.28125 L 0.800781 7.28125 Z M 0.800781 0.320312 " clip-rule="nonzero"/></clipPath><clipPath id="8dd7a7fb54"><path d="M 0.925781 6.441406 L 1.355469 5.472656 C 1.894531 5.902344 2.746094 6.210938 3.574219 6.210938 C 4.625 6.210938 5.066406 5.839844 5.066406 5.339844 C 5.066406 3.890625 1.074219 4.839844 1.074219 2.339844 C 1.074219 1.261719 1.9375 0.332031 3.785156 0.332031 C 4.597656 0.332031 5.4375 0.542969 6.027344 0.933594 L 5.636719 1.902344 C 5.027344 1.550781 4.367188 1.371094 3.785156 1.371094 C 2.746094 1.371094 2.324219 1.773438 2.324219 2.28125 C 2.324219 3.710938 6.304688 2.78125 6.304688 5.25 C 6.304688 6.332031 5.4375 7.25 3.585938 7.25 C 2.535156 7.25 1.496094 6.921875 0.9375 6.441406 " clip-rule="nonzero"/></clipPath><clipPath id="8fe158dd30"><rect x="0" width="7" y="0" height="8"/></clipPath><clipPath id="a592e8afa5"><path d="M 116.894531 46.363281 L 122.644531 46.363281 L 122.644531 53.3125 L 116.894531 53.3125 Z M 116.894531 46.363281 " clip-rule="nonzero"/></clipPath><clipPath id="144b7669f3"><path d="M 121.347656 48.820312 C 121.347656 47.972656 120.777344 47.492188 119.6875 47.492188 L 118.226562 47.492188 L 118.226562 50.152344 L 119.6875 50.152344 C 120.785156 50.152344 121.347656 49.660156 121.347656 48.820312 M 122.605469 48.820312 C 122.605469 50.300781 121.503906 51.210938 119.746094 51.210938 L 118.226562 51.210938 L 118.226562 53.152344 L 116.976562 53.152344 L 116.976562 46.433594 L 119.734375 46.433594 C 121.503906 46.433594 122.59375 47.332031 122.59375 48.820312 " clip-rule="nonzero"/></clipPath><clipPath id="1aa5438a71"><path d="M 0.894531 0.363281 L 6.640625 0.363281 L 6.640625 7.28125 L 0.894531 7.28125 Z M 0.894531 0.363281 " clip-rule="nonzero"/></clipPath><clipPath id="653b69cf63"><path d="M 5.347656 2.820312 C 5.347656 1.972656 4.777344 1.492188 3.6875 1.492188 L 2.226562 1.492188 L 2.226562 4.152344 L 3.6875 4.152344 C 4.785156 4.152344 5.347656 3.660156 5.347656 2.820312 M 6.605469 2.820312 C 6.605469 4.300781 5.503906 5.210938 3.746094 5.210938 L 2.226562 5.210938 L 2.226562 7.152344 L 0.976562 7.152344 L 0.976562 0.433594 L 3.734375 0.433594 C 5.503906 0.433594 6.59375 1.332031 6.59375 2.820312 " clip-rule="nonzero"/></clipPath><clipPath id="b8d0ddc89a"><rect x="0" width="7" y="0" height="8"/></clipPath><clipPath id="dedd2ee8bb"><path d="M 131 46.363281 L 138.457031 46.363281 L 138.457031 53.3125 L 131 53.3125 Z M 131 46.363281 " clip-rule="nonzero"/></clipPath><clipPath id="08dbf6b876"><path d="M 135.90625 50.613281 L 134.636719 47.671875 L 133.375 50.613281 Z M 136.316406 51.589844 L 132.957031 51.589844 L 132.296875 53.152344 L 131.003906 53.152344 L 134.027344 46.433594 L 135.253906 46.433594 L 138.296875 53.152344 L 136.984375 53.152344 Z M 136.316406 51.589844 " clip-rule="nonzero"/></clipPath><clipPath id="f231a61973"><path d="M 0 0.363281 L 7.457031 0.363281 L 7.457031 7.28125 L 0 7.28125 Z M 0 0.363281 " clip-rule="nonzero"/></clipPath><clipPath id="1d756b3dd1"><path d="M 4.90625 4.613281 L 3.636719 1.671875 L 2.375 4.613281 Z M 5.316406 5.589844 L 1.957031 5.589844 L 1.296875 7.152344 L 0.00390625 7.152344 L 3.027344 0.433594 L 4.253906 0.433594 L 7.296875 7.152344 L 5.984375 7.152344 Z M 5.316406 5.589844 " clip-rule="nonzero"/></clipPath><clipPath id="c79ef35163"><rect x="0" width="8" y="0" height="8"/></clipPath><clipPath id="abc25c4119"><path d="M 147 46.125 L 153.3125 46.125 L 153.3125 55.46875 L 147 55.46875 Z M 147 46.125 " clip-rule="nonzero"/></clipPath><clipPath id="e2a811ced3"><path d="M 152.464844 51.351562 L 153.277344 52.121094 C 152.664062 52.820312 151.777344 53.210938 150.726562 53.242188 L 150.625 53.621094 C 151.195312 53.691406 151.464844 54.011719 151.464844 54.433594 C 151.464844 54.992188 150.945312 55.339844 150.15625 55.339844 C 149.804688 55.339844 149.515625 55.273438 149.277344 55.140625 L 149.496094 54.570312 C 149.695312 54.683594 149.90625 54.722656 150.144531 54.722656 C 150.496094 54.722656 150.65625 54.582031 150.65625 54.371094 C 150.65625 54.191406 150.515625 54.050781 150.144531 54.050781 L 149.84375 54.050781 L 150.066406 53.203125 C 148.285156 52.972656 147.015625 51.601562 147.015625 49.773438 C 147.015625 47.761719 148.554688 46.3125 150.617188 46.3125 C 151.707031 46.3125 152.65625 46.703125 153.277344 47.433594 L 152.464844 48.191406 C 151.976562 47.660156 151.367188 47.402344 150.675781 47.402344 C 149.285156 47.402344 148.277344 48.382812 148.277344 49.761719 C 148.277344 51.140625 149.285156 52.121094 150.675781 52.121094 C 151.375 52.121094 151.984375 51.863281 152.464844 51.320312 " clip-rule="nonzero"/></clipPath><clipPath id="1d23a12139"><path d="M 0 0.125 L 6.3125 0.125 L 6.3125 9.441406 L 0 9.441406 Z M 0 0.125 " clip-rule="nonzero"/></clipPath><clipPath id="1c12f102f3"><path d="M 5.464844 5.351562 L 6.277344 6.121094 C 5.664062 6.820312 4.777344 7.210938 3.726562 7.242188 L 3.625 7.621094 C 4.195312 7.691406 4.464844 8.011719 4.464844 8.433594 C 4.464844 8.992188 3.945312 9.339844 3.15625 9.339844 C 2.804688 9.339844 2.515625 9.273438 2.277344 9.140625 L 2.496094 8.570312 C 2.695312 8.683594 2.90625 8.722656 3.144531 8.722656 C 3.496094 8.722656 3.65625 8.582031 3.65625 8.371094 C 3.65625 8.191406 3.515625 8.050781 3.144531 8.050781 L 2.84375 8.050781 L 3.066406 7.203125 C 1.285156 6.972656 0.015625 5.601562 0.015625 3.773438 C 0.015625 1.761719 1.554688 0.3125 3.617188 0.3125 C 4.707031 0.3125 5.65625 0.703125 6.277344 1.433594 L 5.464844 2.191406 C 4.976562 1.660156 4.367188 1.402344 3.675781 1.402344 C 2.285156 1.402344 1.277344 2.382812 1.277344 3.761719 C 1.277344 5.140625 2.285156 6.121094 3.675781 6.121094 C 4.375 6.121094 4.984375 5.863281 5.464844 5.320312 " clip-rule="nonzero"/></clipPath><clipPath id="7892ed2654"><rect x="0" width="7" y="0" height="10"/></clipPath><clipPath id="ec9f6980c1"><path d="M 162.179688 46.125 L 169.605469 46.125 L 169.605469 53.3125 L 162.179688 53.3125 Z M 162.179688 46.125 " clip-rule="nonzero"/></clipPath><clipPath id="198e9c0190"><path d="M 168.277344 49.792969 C 168.277344 48.421875 167.265625 47.433594 165.914062 47.433594 C 164.566406 47.433594 163.554688 48.421875 163.554688 49.792969 C 163.554688 51.160156 164.566406 52.152344 165.914062 52.152344 C 167.265625 52.152344 168.277344 51.160156 168.277344 49.792969 M 162.296875 49.792969 C 162.296875 47.800781 163.835938 46.332031 165.914062 46.332031 C 167.996094 46.332031 169.535156 47.792969 169.535156 49.792969 C 169.535156 51.792969 167.996094 53.25 165.914062 53.25 C 163.835938 53.25 162.296875 51.78125 162.296875 49.792969 " clip-rule="nonzero"/></clipPath><clipPath id="d8a9add01e"><path d="M 0.238281 0.320312 L 7.605469 0.320312 L 7.605469 7.28125 L 0.238281 7.28125 Z M 0.238281 0.320312 " clip-rule="nonzero"/></clipPath><clipPath id="50b8900354"><path d="M 6.277344 3.792969 C 6.277344 2.421875 5.265625 1.433594 3.914062 1.433594 C 2.566406 1.433594 1.554688 2.421875 1.554688 3.792969 C 1.554688 5.160156 2.566406 6.152344 3.914062 6.152344 C 5.265625 6.152344 6.277344 5.160156 6.277344 3.792969 M 0.296875 3.792969 C 0.296875 1.800781 1.835938 0.332031 3.914062 0.332031 C 5.996094 0.332031 7.535156 1.792969 7.535156 3.792969 C 7.535156 5.792969 5.996094 7.25 3.914062 7.25 C 1.835938 7.25 0.296875 5.78125 0.296875 3.792969 " clip-rule="nonzero"/></clipPath><clipPath id="6b9d308bcc"><rect x="0" width="8" y="0" height="8"/></clipPath></defs><rect x="-25.2" width="302.4" fill="#ffffff" y="-14.4" height="172.799997" fill-opacity="1"/><rect x="-25.2" width="302.4" fill="#d15556" y="-14.4" height="172.799997" fill-opacity="1"/><g clip-path="url(#aee847e942)"><g clip-path="url(#3a26fa5b53)"><g transform="matrix(1, 0, 0, 1, 56, 46)"><g clip-path="url(#616fe1c916)"><g clip-path="url(#5a9b2e19ee)"><g clip-path="url(#ffe7e06740)"><rect x="-111.44" width="362.88" fill="#eed7b6" height="207.359996" y="-77.679999" fill-opacity="1"/></g></g></g></g></g></g><g clip-path="url(#3d7162b134)"><g clip-path="url(#60f0e7a95a)"><g transform="matrix(1, 0, 0, 1, 87, 57)"><g clip-path="url(#bd23f73e14)"><g clip-path="url(#117174cb83)"><g clip-path="url(#ed73d427c6)"><rect x="-142.44" width="362.88" fill="#eed7b6" height="207.359996" y="-88.679999" fill-opacity="1"/></g></g></g></g></g></g><g clip-path="url(#f71f6dcd4c)"><g clip-path="url(#35bd769f5e)"><g transform="matrix(1, 0, 0, 1, 116, 57)"><g clip-path="url(#f4072df0cb)"><g clip-path="url(#4ba0993d43)"><g clip-path="url(#388c181236)"><rect x="-171.44" width="362.88" fill="#eed7b6" height="207.359996" y="-88.679999" fill-opacity="1"/></g></g></g></g></g></g><g clip-path="url(#bb32264de8)"><g clip-path="url(#51e53cfebe)"><g transform="matrix(1, 0, 0, 1, 142, 57)"><g clip-path="url(#7538ce77cc)"><g clip-path="url(#9603a27e1e)"><g clip-path="url(#98a6ffe22d)"><rect x="-197.44" width="362.88" fill="#eed7b6" height="207.359996" y="-88.679999" fill-opacity="1"/></g></g></g></g></g></g><g clip-path="url(#15fa3427d0)"><g clip-path="url(#c35ddd6123)"><g transform="matrix(1, 0, 0, 1, 170, 57)"><g clip-path="url(#0fafe225ed)"><g clip-path="url(#de884dc93e)"><g clip-path="url(#4852711521)"><rect x="-225.44" width="362.88" fill="#eed7b6" height="207.359996" y="-88.679999" fill-opacity="1"/></g></g></g></g></g></g><g clip-path="url(#c44890882d)"><g transform="matrix(1, 0, 0, 1, 87, 46)"><g clip-path="url(#07192eb195)"><g clip-path="url(#f8f52ea1d0)"><rect x="-142.44" width="362.88" fill="#eed7b6" height="207.359996" y="-77.679999" fill-opacity="1"/></g></g></g></g><g clip-path="url(#ccd4f0481d)"><g clip-path="url(#c7263c4842)"><g transform="matrix(1, 0, 0, 1, 101, 46)"><g clip-path="url(#8fe158dd30)"><g clip-path="url(#f4f404368e)"><g clip-path="url(#8dd7a7fb54)"><rect x="-156.44" width="362.88" fill="#eed7b6" height="207.359996" y="-77.679999" fill-opacity="1"/></g></g></g></g></g></g><g clip-path="url(#a592e8afa5)"><g clip-path="url(#144b7669f3)"><g transform="matrix(1, 0, 0, 1, 116, 46)"><g clip-path="url(#b8d0ddc89a)"><g clip-path="url(#1aa5438a71)"><g clip-path="url(#653b69cf63)"><rect x="-171.44" width="362.88" fill="#eed7b6" height="207.359996" y="-77.679999" fill-opacity="1"/></g></g></g></g></g></g><g clip-path="url(#dedd2ee8bb)"><g clip-path="url(#08dbf6b876)"><g transform="matrix(1, 0, 0, 1, 131, 46)"><g clip-path="url(#c79ef35163)"><g clip-path="url(#f231a61973)"><g clip-path="url(#1d756b3dd1)"><rect x="-186.44" width="362.88" fill="#eed7b6" height="207.359996" y="-77.679999" fill-opacity="1"/></g></g></g></g></g></g><g clip-path="url(#abc25c4119)"><g clip-path="url(#e2a811ced3)"><g transform="matrix(1, 0, 0, 1, 147, 46)"><g clip-path="url(#7892ed2654)"><g clip-path="url(#1d23a12139)"><g clip-path="url(#1c12f102f3)"><rect x="-202.44" width="362.88" fill="#eed7b6" height="207.359996" y="-77.679999" fill-opacity="1"/></g></g></g></g></g></g><g clip-path="url(#ec9f6980c1)"><g clip-path="url(#198e9c0190)"><g transform="matrix(1, 0, 0, 1, 162, 46)"><g clip-path="url(#6b9d308bcc)"><g clip-path="url(#d8a9add01e)"><g clip-path="url(#50b8900354)"><rect x="-217.44" width="362.88" fill="#eed7b6" height="207.359996" y="-77.679999" fill-opacity="1"/></g></g></g></g></g></g></svg>