<svg width="186" height="69" viewBox="0 0 186 69" fill="none" xmlns="http://www.w3.org/2000/svg">
<mask id="mask0_168_482" style="mask-type:luminance" maskUnits="userSpaceOnUse" x="0" y="0" width="40" height="69">
<path d="M0 0.314453H39.9323V68.2813H0V0.314453Z" fill="white"/>
</mask>
<g mask="url(#mask0_168_482)">
<mask id="mask1_168_482" style="mask-type:luminance" maskUnits="userSpaceOnUse" x="0" y="0" width="40" height="69">
<path d="M14.3437 30.4761C14.3437 39.4494 15.8594 44.5416 18.6875 45.624C20.2864 44.6859 21.875 43.8922 23.4739 43.3253C24.8489 40.8874 25.5833 36.5837 25.5833 30.4761C25.5833 20.2092 23.6198 15.117 19.9271 15.117C16.3021 15.117 14.3437 20.2092 14.3437 30.4761ZM9.55728 49.2782C12.2344 49.2782 14.9167 47.6959 17.8229 46.1239C13.5417 45.5415 9.77082 43.4696 7.15624 40.4493C5.70311 41.3049 4.7552 42.8098 4.7552 44.5416C4.7552 47.1238 6.92707 49.2782 9.54166 49.2782M39.6458 55.3085C39.6458 62.3387 34.1406 68.0133 27.4635 68.0133C21.875 68.0133 16.7969 64.2766 16.7969 59.9008C16.7969 56.8083 19.3281 54.3034 22.4479 54.3034C25.5677 54.3034 28.0364 56.8083 28.0364 59.9008C28.0364 61.4006 27.4635 62.8386 26.4375 63.8436C25.7812 64.4879 25.2083 65.3486 25.2083 66.0754C25.2083 67.2196 26.0104 67.5752 27.4635 67.5752C33.9167 67.5752 39.2083 62.117 39.2083 55.3085C39.2083 50.2111 35.2239 46.1239 30.3542 46.1239C21.7969 46.1239 18.3802 59.1174 9.54166 59.1174C4.40624 59.107 0.276031 54.8034 0.276031 49.4225C0.276031 45.0416 3.10416 41.3049 6.95312 40.1606C4.70311 37.5063 3.39582 34.1304 3.39582 30.4761C3.39582 21.7142 10.7969 14.6789 19.9271 14.6789C22.3958 14.6789 24.7812 15.184 26.8906 16.1169C24.4896 13.9676 21.4479 10.2361 21.4479 5.9994C21.4479 2.91211 23.9844 0.407227 27.1042 0.407227C30.2239 0.407227 32.7031 2.91211 32.7031 5.9994C32.7031 8.35997 31.1042 10.3031 28.9948 11.2359C27.3958 11.8854 26.526 12.8853 26.526 13.9676C26.526 15.1943 27.6875 16.4106 29.1406 17.3487C33.6354 20.2247 36.4635 24.9613 36.4635 30.4864C36.4635 35.5168 33.9948 40.0421 30.0729 42.9026C35.5156 44.1963 39.6458 49.2885 39.6458 55.3188" fill="white"/>
</mask>
<g mask="url(#mask1_168_482)">
<mask id="mask2_168_482" style="mask-type:luminance" maskUnits="userSpaceOnUse" x="-1" y="-1" width="42" height="70">
<path d="M40.6406 -0.164917H-0.692719V68.4462H40.6406V-0.164917Z" fill="white"/>
</mask>
<g mask="url(#mask2_168_482)">
<mask id="mask3_168_482" style="mask-type:luminance" maskUnits="userSpaceOnUse" x="0" y="0" width="40" height="69">
<path d="M0.161438 0.314453H39.8385V68.0236H0.161438V0.314453Z" fill="white"/>
</mask>
<g mask="url(#mask3_168_482)">
<mask id="mask4_168_482" style="mask-type:luminance" maskUnits="userSpaceOnUse" x="0" y="0" width="40" height="69">
<path d="M14.3437 30.4761C14.3437 39.4494 15.8594 44.5416 18.6875 45.624C20.2864 44.6859 21.875 43.8922 23.4739 43.3253C24.8489 40.8874 25.5833 36.5837 25.5833 30.4761C25.5833 20.2092 23.6198 15.117 19.9271 15.117C16.3021 15.117 14.3437 20.2092 14.3437 30.4761ZM9.55728 49.2782C12.2344 49.2782 14.9167 47.6959 17.8229 46.1239C13.5417 45.5415 9.77082 43.4696 7.15624 40.4493C5.70312 41.3049 4.7552 42.8098 4.7552 44.5416C4.7552 47.1238 6.92707 49.2782 9.54166 49.2782M39.6458 55.3085C39.6458 62.3387 34.1406 68.0133 27.4635 68.0133C21.875 68.0133 16.7969 64.2766 16.7969 59.9008C16.7969 56.8083 19.3281 54.3034 22.4479 54.3034C25.5677 54.3034 28.0364 56.8083 28.0364 59.9008C28.0364 61.4006 27.4635 62.8386 26.4375 63.8436C25.7812 64.4879 25.2083 65.3486 25.2083 66.0754C25.2083 67.2196 26.0104 67.5752 27.4635 67.5752C33.9167 67.5752 39.2083 62.117 39.2083 55.3085C39.2083 50.2111 35.2239 46.1239 30.3542 46.1239C21.7969 46.1239 18.3802 59.1174 9.54166 59.1174C4.40624 59.107 0.276031 54.8034 0.276031 49.4225C0.276031 45.0416 3.10416 41.3049 6.95312 40.1606C4.70312 37.5063 3.39582 34.1304 3.39582 30.4761C3.39582 21.7142 10.7969 14.6789 19.9271 14.6789C22.3958 14.6789 24.7812 15.184 26.8906 16.1169C24.4896 13.9676 21.4479 10.2361 21.4479 5.9994C21.4479 2.91211 23.9844 0.407227 27.1042 0.407227C30.2239 0.407227 32.7031 2.91211 32.7031 5.9994C32.7031 8.35997 31.1042 10.3031 28.9948 11.2359C27.3958 11.8854 26.526 12.8853 26.526 13.9676C26.526 15.1943 27.6875 16.4106 29.1406 17.3487C33.6354 20.2247 36.4635 24.9613 36.4635 30.4864C36.4635 35.5168 33.9948 40.0421 30.0729 42.9026C35.5156 44.1963 39.6458 49.2885 39.6458 55.3188" fill="white"/>
</mask>
<g mask="url(#mask4_168_482)">
<path d="M334.561 -102.659H-149.279V170.941H334.561V-102.659Z" fill="#EED7B6"/>
</g>
</g>
</g>
</g>
</g>
<mask id="mask5_168_482" style="mask-type:luminance" maskUnits="userSpaceOnUse" x="41" y="15" width="37" height="37">
<path d="M41.2083 15.1736H77.625V51.2109H41.2083V15.1736Z" fill="white"/>
</mask>
<g mask="url(#mask5_168_482)">
<mask id="mask6_168_482" style="mask-type:luminance" maskUnits="userSpaceOnUse" x="41" y="15" width="37" height="37">
<path d="M77.3698 48.773V49.2111L64.9687 51.0048H64.7552C64.1042 51.0048 63.5156 50.4223 63.5156 49.7936V48.6957C56.8333 52.0717 44.4375 53.288 44.4375 41.1605V21.1317C44.4375 19.3381 43.1302 17.9001 41.4635 17.6115V17.1734L53.8594 15.3798H54.0729C54.7969 15.3798 55.3021 15.8797 55.3021 16.6064V40.1606C55.3021 43.8148 51.526 44.7529 51.526 47.4021C51.526 48.907 53.6354 49.9121 56.4635 49.9121C60.0885 49.9121 63.0625 48.4741 63.5 48.2628V21.1317C63.5 19.3381 62.1927 17.9001 60.526 17.6115V17.1734L72.9271 15.3798H73.1406C73.8594 15.3798 74.3698 15.8797 74.3698 16.6064V45.2373C74.3698 46.9691 75.6771 48.4741 77.3437 48.7627" fill="white"/>
</mask>
<g mask="url(#mask6_168_482)">
<mask id="mask7_168_482" style="mask-type:luminance" maskUnits="userSpaceOnUse" x="40" y="14" width="38" height="38">
<path d="M77.974 14.349H40.6406V51.2934H77.974V14.349Z" fill="white"/>
</mask>
<g mask="url(#mask7_168_482)">
<mask id="mask8_168_482" style="mask-type:luminance" maskUnits="userSpaceOnUse" x="41" y="15" width="37" height="37">
<path d="M41.4427 15.1737H77.599V51.211H41.4427V15.1737Z" fill="white"/>
</mask>
<g mask="url(#mask8_168_482)">
<mask id="mask9_168_482" style="mask-type:luminance" maskUnits="userSpaceOnUse" x="41" y="15" width="37" height="37">
<path d="M77.3698 48.7732V49.2113L64.9687 51.0049H64.7552C64.1042 51.0049 63.5156 50.4225 63.5156 49.7937V48.6959C56.8333 52.0718 44.4375 53.2881 44.4375 41.1606V21.1318C44.4375 19.3382 43.1302 17.9002 41.4635 17.6116V17.1735L53.8594 15.3799H54.0729C54.7969 15.3799 55.3021 15.8798 55.3021 16.6066V40.1607C55.3021 43.8149 51.526 44.753 51.526 47.4022C51.526 48.9072 53.6354 49.9122 56.4635 49.9122C60.0885 49.9122 63.0625 48.4742 63.5 48.2629V21.1318C63.5 19.3382 62.1927 17.9002 60.526 17.6116V17.1735L72.9271 15.3799H73.1406C73.8594 15.3799 74.3698 15.8798 74.3698 16.6066V45.2375C74.3698 46.9692 75.6771 48.4742 77.3437 48.7629" fill="white"/>
</mask>
<g mask="url(#mask9_168_482)">
<path d="M334.561 -102.659H-149.279V170.941H334.561V-102.659Z" fill="#EED7B6"/>
</g>
</g>
</g>
</g>
</g>
<mask id="mask10_168_482" style="mask-type:luminance" maskUnits="userSpaceOnUse" x="79" y="14" width="34" height="38">
<path d="M79.5417 14.5397H112.448V51.211H79.5417V14.5397Z" fill="white"/>
</mask>
<g mask="url(#mask10_168_482)">
<mask id="mask11_168_482" style="mask-type:luminance" maskUnits="userSpaceOnUse" x="79" y="14" width="34" height="38">
<path d="M98.4896 29.3267V28.9711C95.5156 30.3318 91.0885 32.6253 90.6458 38.6556C90.4323 42.0985 91.3021 44.7529 92.8229 46.4125C94.4219 48.1443 96.8906 48.5618 98.474 47.4176L98.4896 29.3267ZM112.406 48.7731V49.2112L99.9271 51.0048H99.7812C99.0625 51.0048 98.474 50.4378 98.474 49.7111V47.902C96.7292 49.1957 93.7552 50.9945 89.7031 50.9945C85.1302 50.9945 81.0729 48.4071 79.9792 44.3973C78.8229 40.3049 81.1406 36.0683 85.1302 33.6304C91.3698 29.7494 108.344 27.3063 108.344 21.7812C108.344 19.8381 106.38 17.7558 104.063 16.6065C101.234 15.2509 97.7552 14.7355 94.1927 15.3128C91.5833 15.6684 90.0625 16.5395 90.0625 18.0445C90.0625 20.6988 93.1823 21.6368 93.1823 24.9355C93.1823 28.0228 90.6458 30.4606 87.526 30.4606C84.4062 30.4606 81.9427 28.0228 81.9427 24.9355C81.9427 19.3381 88.9792 15.6066 94.1302 14.8799C97.901 14.2974 101.526 14.8128 104.286 16.2405C107.047 17.5961 109.432 20.0391 109.432 23.5593V45.2528C109.432 46.9795 110.74 48.4844 112.406 48.7731Z" fill="white"/>
</mask>
<g mask="url(#mask11_168_482)">
<mask id="mask12_168_482" style="mask-type:luminance" maskUnits="userSpaceOnUse" x="79" y="14" width="34" height="38">
<path d="M112.641 14.349H79.3073V51.2934H112.641V14.349Z" fill="white"/>
</mask>
<g mask="url(#mask12_168_482)">
<mask id="mask13_168_482" style="mask-type:luminance" maskUnits="userSpaceOnUse" x="79" y="14" width="34" height="38">
<path d="M79.5417 14.5397H112.448V51.211H79.5417V14.5397Z" fill="white"/>
</mask>
<g mask="url(#mask13_168_482)">
<mask id="mask14_168_482" style="mask-type:luminance" maskUnits="userSpaceOnUse" x="79" y="14" width="34" height="38">
<path d="M98.4896 29.3267V28.9711C95.5156 30.3318 91.0885 32.6253 90.6458 38.6556C90.4323 42.0985 91.3021 44.7529 92.8229 46.4125C94.4219 48.1443 96.8906 48.5618 98.474 47.4176L98.4896 29.3267ZM112.406 48.7731V49.2112L99.9271 51.0048H99.7812C99.0625 51.0048 98.474 50.4378 98.474 49.7111V47.902C96.7292 49.1957 93.7552 50.9945 89.7031 50.9945C85.1302 50.9945 81.0729 48.4071 79.9792 44.3973C78.8229 40.3049 81.1406 36.0683 85.1302 33.6304C91.3698 29.7494 108.344 27.3063 108.344 21.7812C108.344 19.8381 106.38 17.7558 104.063 16.6065C101.234 15.2509 97.7552 14.7355 94.1927 15.3128C91.5833 15.6684 90.0625 16.5395 90.0625 18.0445C90.0625 20.6988 93.1823 21.6369 93.1823 24.9355C93.1823 28.0228 90.6458 30.4606 87.526 30.4606C84.4062 30.4606 81.9427 28.0228 81.9427 24.9355C81.9427 19.3381 88.9792 15.6066 94.1302 14.8799C97.901 14.2974 101.526 14.8128 104.286 16.2405C107.047 17.5961 109.432 20.0391 109.432 23.5593V45.2528C109.432 46.9795 110.74 48.4844 112.406 48.7731Z" fill="white"/>
</mask>
<g mask="url(#mask14_168_482)">
<path d="M334.561 -102.659H-149.279V170.941H334.561V-102.659Z" fill="#EED7B6"/>
</g>
</g>
</g>
</g>
</g>
<mask id="mask15_168_482" style="mask-type:luminance" maskUnits="userSpaceOnUse" x="114" y="14" width="37" height="54">
<path d="M114.365 14.5397H150.781V67.9669H114.365V14.5397Z" fill="white"/>
</mask>
<g mask="url(#mask15_168_482)">
<mask id="mask16_168_482" style="mask-type:luminance" maskUnits="userSpaceOnUse" x="114" y="14" width="37" height="54">
<path d="M139.661 32.3728C139.661 23.482 135.797 16.3281 130.969 16.3281C130.089 16.3281 129.286 16.5395 128.49 16.9106V50.0564C133.979 50.0564 139.661 45.6755 139.661 32.3728ZM150.474 31.7285C150.474 47.9948 134.891 50.7162 128.49 50.7162V66.4155C128.49 67.2092 127.833 67.936 126.953 67.936H114.526V67.4979C116.208 67.1422 117.526 65.6888 117.526 63.8848V20.6576C117.526 18.8485 116.208 17.4002 114.526 17.1219V16.6889L127.021 14.8799H127.25C127.979 14.8799 128.49 15.4571 128.49 16.1065V16.4622C130.021 15.6684 131.781 15.0912 133.755 14.8644C141.781 14.0758 150.474 20.8689 150.474 31.7131" fill="white"/>
</mask>
<g mask="url(#mask16_168_482)">
<mask id="mask17_168_482" style="mask-type:luminance" maskUnits="userSpaceOnUse" x="113" y="14" width="39" height="55">
<path d="M151.307 14.349H113.974V68.4462H151.307V14.349Z" fill="white"/>
</mask>
<g mask="url(#mask17_168_482)">
<mask id="mask18_168_482" style="mask-type:luminance" maskUnits="userSpaceOnUse" x="114" y="14" width="37" height="54">
<path d="M114.401 14.5397H150.562V67.9669H114.401V14.5397Z" fill="white"/>
</mask>
<g mask="url(#mask18_168_482)">
<mask id="mask19_168_482" style="mask-type:luminance" maskUnits="userSpaceOnUse" x="114" y="14" width="37" height="54">
<path d="M139.661 32.3728C139.661 23.482 135.797 16.3281 130.969 16.3281C130.089 16.3281 129.286 16.5395 128.49 16.9106V50.0564C133.979 50.0564 139.661 45.6755 139.661 32.3728ZM150.474 31.7285C150.474 47.9948 134.891 50.7162 128.49 50.7162V66.4155C128.49 67.2092 127.833 67.936 126.953 67.936H114.526V67.4979C116.208 67.1422 117.526 65.6888 117.526 63.8848V20.6576C117.526 18.8485 116.208 17.4002 114.526 17.1219V16.6889L127.021 14.8799H127.25C127.979 14.8799 128.49 15.4571 128.49 16.1065V16.4622C130.021 15.6684 131.781 15.0912 133.755 14.8644C141.781 14.0758 150.474 20.8689 150.474 31.7131" fill="white"/>
</mask>
<g mask="url(#mask19_168_482)">
<path d="M334.561 -102.659H-149.279V170.941H334.561V-102.659Z" fill="#EED7B6"/>
</g>
</g>
</g>
</g>
</g>
<mask id="mask20_168_482" style="mask-type:luminance" maskUnits="userSpaceOnUse" x="152" y="14" width="34" height="38">
<path d="M152.057 14.5397H185.281V51.211H152.057V14.5397Z" fill="white"/>
</mask>
<g mask="url(#mask20_168_482)">
<mask id="mask21_168_482" style="mask-type:luminance" maskUnits="userSpaceOnUse" x="152" y="14" width="33" height="38">
<path d="M171.073 29.3267V28.9711C168.099 30.3318 163.677 32.6253 163.234 38.6556C163.021 42.0985 163.885 44.7529 165.406 46.4125C167.01 48.1443 169.474 48.5618 171.063 47.4176L171.073 29.3267ZM184.995 48.7731V49.2112L172.516 51.0048H172.37C171.646 51.0048 171.063 50.4378 171.063 49.7111V47.902C169.313 49.1957 166.344 50.9945 162.286 50.9945C157.714 50.9945 153.661 48.4071 152.568 44.3973C151.406 40.3049 153.729 36.0683 157.714 33.6304C163.953 29.7494 180.927 27.3063 180.927 21.7812C180.927 19.8381 178.969 17.7558 176.646 16.6065C173.823 15.2509 170.344 14.7355 166.781 15.3128C164.167 15.6684 162.646 16.5395 162.646 18.0445C162.646 20.6988 165.766 21.6368 165.766 24.9355C165.766 28.0228 163.234 30.4606 160.115 30.4606C156.995 30.4606 154.526 28.0228 154.526 24.9355C154.526 19.3381 161.568 15.6066 166.714 14.8799C170.49 14.2974 174.115 14.8128 176.875 16.2405C179.635 17.5961 182.021 20.0391 182.021 23.5593V45.2528C182.021 46.9795 183.328 48.4844 184.995 48.7731Z" fill="white"/>
</mask>
<g mask="url(#mask21_168_482)">
<mask id="mask22_168_482" style="mask-type:luminance" maskUnits="userSpaceOnUse" x="151" y="14" width="35" height="38">
<path d="M185.974 14.349H151.307V51.2934H185.974V14.349Z" fill="white"/>
</mask>
<g mask="url(#mask22_168_482)">
<mask id="mask23_168_482" style="mask-type:luminance" maskUnits="userSpaceOnUse" x="152" y="14" width="34" height="38">
<path d="M152.057 14.5397H185.12V51.211H152.057V14.5397Z" fill="white"/>
</mask>
<g mask="url(#mask23_168_482)">
<mask id="mask24_168_482" style="mask-type:luminance" maskUnits="userSpaceOnUse" x="152" y="14" width="33" height="38">
<path d="M171.073 29.3267V28.9711C168.099 30.3318 163.677 32.6253 163.234 38.6556C163.021 42.0985 163.885 44.7529 165.406 46.4125C167.01 48.1443 169.474 48.5618 171.063 47.4176L171.073 29.3267ZM184.995 48.7731V49.2112L172.516 51.0048H172.37C171.646 51.0048 171.063 50.4378 171.063 49.7111V47.902C169.313 49.1957 166.344 50.9945 162.286 50.9945C157.714 50.9945 153.661 48.4071 152.568 44.3973C151.406 40.3049 153.729 36.0683 157.714 33.6304C163.953 29.7494 180.927 27.3063 180.927 21.7812C180.927 19.8381 178.969 17.7558 176.646 16.6065C173.823 15.2509 170.344 14.7355 166.781 15.3128C164.167 15.6684 162.646 16.5395 162.646 18.0445C162.646 20.6988 165.766 21.6369 165.766 24.9355C165.766 28.0228 163.234 30.4606 160.115 30.4606C156.995 30.4606 154.526 28.0228 154.526 24.9355C154.526 19.3381 161.568 15.6066 166.714 14.8799C170.49 14.2974 174.115 14.8128 176.875 16.2405C179.635 17.5961 182.021 20.0391 182.021 23.5593V45.2528C182.021 46.9795 183.328 48.4844 184.995 48.7731Z" fill="white"/>
</mask>
<g mask="url(#mask24_168_482)">
<path d="M334.561 -102.659H-149.279V170.941H334.561V-102.659Z" fill="#EED7B6"/>
</g>
</g>
</g>
</g>
</g>
<mask id="mask25_168_482" style="mask-type:luminance" maskUnits="userSpaceOnUse" x="41" y="0" width="8" height="10">
<path d="M41.4635 0.407227H48.0104V1.77821H41.4635V0.407227ZM41.4635 1.77821H43.1302V4.08724H41.4635V1.77821ZM41.4635 4.08724H47.4635V5.44276H41.4635V4.08724ZM41.4635 5.44276H43.1302V7.8858H41.4635V5.44276ZM41.4635 7.8858H48.1823V9.27224H41.4635V7.8858Z" fill="white"/>
</mask>
<g mask="url(#mask25_168_482)">
<mask id="mask26_168_482" style="mask-type:luminance" maskUnits="userSpaceOnUse" x="40" y="-1" width="9" height="12">
<path d="M48.6406 -0.164917H40.6406V10.3906H48.6406V-0.164917Z" fill="white"/>
</mask>
<g mask="url(#mask26_168_482)">
<mask id="mask27_168_482" style="mask-type:luminance" maskUnits="userSpaceOnUse" x="41" y="0" width="8" height="10">
<path d="M41.4635 0.407227H48.0104V1.77821H41.4635V0.407227ZM41.4635 1.77821H43.1302V4.08724H41.4635V1.77821ZM41.4635 4.08724H47.4635V5.44276H41.4635V4.08724ZM41.4635 5.44276H43.1302V7.8858H41.4635V5.44276ZM41.4635 7.8858H48.1823V9.27224H41.4635V7.8858Z" fill="white"/>
</mask>
<g mask="url(#mask27_168_482)">
<path d="M334.561 -102.659H-149.279V170.941H334.561V-102.659Z" fill="#EED7B6"/>
</g>
</g>
</g>
<mask id="mask28_168_482" style="mask-type:luminance" maskUnits="userSpaceOnUse" x="60" y="0" width="8" height="10">
<path d="M60.375 0H67.724V9.48351H60.375V0Z" fill="white"/>
</mask>
<g mask="url(#mask28_168_482)">
<mask id="mask29_168_482" style="mask-type:luminance" maskUnits="userSpaceOnUse" x="60" y="0" width="8" height="10">
<path d="M60.5417 8.33417L61.1146 7.05596C61.8333 7.62291 62.9688 8.03008 64.0729 8.03008C65.474 8.03008 66.0625 7.54045 66.0625 6.88072C66.0625 4.96856 60.7396 6.221 60.7396 2.92239C60.7396 1.49986 61.8906 0.273193 64.3542 0.273193C65.4375 0.273193 66.5573 0.551514 67.3438 1.06692L66.8229 2.34513C66.0104 1.88127 65.1302 1.64418 64.3542 1.64418C62.9688 1.64418 62.4063 2.17505 62.4063 2.84508C62.4063 4.73147 67.7135 3.5048 67.7135 6.76218C67.7135 8.18986 66.5573 9.40107 64.0885 9.40107C62.6875 9.40107 61.3021 8.96813 60.5573 8.33417" fill="white"/>
</mask>
<g mask="url(#mask29_168_482)">
<mask id="mask30_168_482" style="mask-type:luminance" maskUnits="userSpaceOnUse" x="59" y="-1" width="10" height="12">
<path d="M68.6406 -0.164917H59.3073V10.3906H68.6406V-0.164917Z" fill="white"/>
</mask>
<g mask="url(#mask30_168_482)">
<mask id="mask31_168_482" style="mask-type:luminance" maskUnits="userSpaceOnUse" x="60" y="0" width="8" height="10">
<path d="M60.375 0.25769H67.724V9.44226H60.375V0.25769Z" fill="white"/>
</mask>
<g mask="url(#mask31_168_482)">
<mask id="mask32_168_482" style="mask-type:luminance" maskUnits="userSpaceOnUse" x="60" y="0" width="8" height="10">
<path d="M60.5417 8.33417L61.1146 7.05596C61.8333 7.62291 62.9688 8.03009 64.0729 8.03009C65.474 8.03009 66.0625 7.54045 66.0625 6.88073C66.0625 4.96856 60.7396 6.221 60.7396 2.92239C60.7396 1.49987 61.8906 0.273193 64.3542 0.273193C65.4375 0.273193 66.5573 0.551514 67.3438 1.06692L66.8229 2.34513C66.0104 1.88127 65.1302 1.64418 64.3542 1.64418C62.9688 1.64418 62.4063 2.17505 62.4063 2.84508C62.4063 4.73147 67.7135 3.5048 67.7135 6.76218C67.7135 8.18986 66.5573 9.40107 64.0885 9.40107C62.6875 9.40107 61.3021 8.96813 60.5573 8.33417" fill="white"/>
</mask>
<g mask="url(#mask32_168_482)">
<path d="M334.561 -102.659H-149.279V170.941H334.561V-102.659Z" fill="#EED7B6"/>
</g>
</g>
</g>
</g>
</g>
<mask id="mask33_168_482" style="mask-type:luminance" maskUnits="userSpaceOnUse" x="80" y="0" width="9" height="10">
<path d="M80.5 0.314453H88.1667V9.48356H80.5V0.314453Z" fill="white"/>
</mask>
<g mask="url(#mask33_168_482)">
<mask id="mask34_168_482" style="mask-type:luminance" maskUnits="userSpaceOnUse" x="80" y="0" width="9" height="10">
<path d="M86.4375 3.55637C86.4375 2.43793 85.6771 1.80398 84.224 1.80398H82.276V5.31391H84.224C85.6875 5.31391 86.4375 4.6645 86.4375 3.55637ZM88.1146 3.55637C88.1146 5.50977 86.6458 6.71067 84.3021 6.71067H82.276V9.27224H80.6094V0.407227H84.2865C86.6458 0.407227 88.099 1.59267 88.099 3.55637" fill="white"/>
</mask>
<g mask="url(#mask34_168_482)">
<mask id="mask35_168_482" style="mask-type:luminance" maskUnits="userSpaceOnUse" x="79" y="-1" width="10" height="12">
<path d="M88.6406 -0.164917H79.3073V10.3906H88.6406V-0.164917Z" fill="white"/>
</mask>
<g mask="url(#mask35_168_482)">
<mask id="mask36_168_482" style="mask-type:luminance" maskUnits="userSpaceOnUse" x="80" y="0" width="9" height="10">
<path d="M80.5 0.314453H88.1615V9.44233H80.5V0.314453Z" fill="white"/>
</mask>
<g mask="url(#mask36_168_482)">
<mask id="mask37_168_482" style="mask-type:luminance" maskUnits="userSpaceOnUse" x="80" y="0" width="9" height="10">
<path d="M86.4375 3.55637C86.4375 2.43793 85.6771 1.80398 84.224 1.80398H82.276V5.31391H84.224C85.6875 5.31391 86.4375 4.6645 86.4375 3.55637ZM88.1146 3.55637C88.1146 5.50977 86.6458 6.71067 84.3021 6.71067H82.276V9.27224H80.6094V0.407227H84.2865C86.6458 0.407227 88.099 1.59266 88.099 3.55637" fill="white"/>
</mask>
<g mask="url(#mask37_168_482)">
<path d="M334.561 -102.659H-149.279V170.941H334.561V-102.659Z" fill="#EED7B6"/>
</g>
</g>
</g>
</g>
</g>
<mask id="mask38_168_482" style="mask-type:luminance" maskUnits="userSpaceOnUse" x="99" y="0" width="11" height="10">
<path d="M99.3073 0.314453H109.25V9.48356H99.3073V0.314453Z" fill="white"/>
</mask>
<g mask="url(#mask38_168_482)">
<mask id="mask39_168_482" style="mask-type:luminance" maskUnits="userSpaceOnUse" x="99" y="0" width="11" height="10">
<path d="M105.849 5.92209L104.156 2.04107L102.474 5.92209H105.849ZM106.396 7.21061H101.917L101.036 9.27224H99.3125L103.344 0.407227H104.979L109.036 9.27224H107.286L106.396 7.21061Z" fill="white"/>
</mask>
<g mask="url(#mask39_168_482)">
<mask id="mask40_168_482" style="mask-type:luminance" maskUnits="userSpaceOnUse" x="99" y="-1" width="11" height="12">
<path d="M109.974 -0.164917H99.3073V10.3906H109.974V-0.164917Z" fill="white"/>
</mask>
<g mask="url(#mask40_168_482)">
<mask id="mask41_168_482" style="mask-type:luminance" maskUnits="userSpaceOnUse" x="99" y="0" width="11" height="10">
<path d="M99.3073 0.314453H109.25V9.44233H99.3073V0.314453Z" fill="white"/>
</mask>
<g mask="url(#mask41_168_482)">
<mask id="mask42_168_482" style="mask-type:luminance" maskUnits="userSpaceOnUse" x="99" y="0" width="11" height="10">
<path d="M105.849 5.92209L104.156 2.04107L102.474 5.92209H105.849ZM106.396 7.21061H101.917L101.036 9.27224H99.3125L103.344 0.407227H104.979L109.036 9.27224H107.286L106.396 7.21061Z" fill="white"/>
</mask>
<g mask="url(#mask42_168_482)">
<path d="M334.561 -102.659H-149.279V170.941H334.561V-102.659Z" fill="#EED7B6"/>
</g>
</g>
</g>
</g>
</g>
<mask id="mask43_168_482" style="mask-type:luminance" maskUnits="userSpaceOnUse" x="120" y="0" width="10" height="13">
<path d="M120.641 0H129.057V12.3286H120.641V0Z" fill="white"/>
</mask>
<g mask="url(#mask43_168_482)">
<mask id="mask44_168_482" style="mask-type:luminance" maskUnits="userSpaceOnUse" x="120" y="0" width="10" height="13">
<path d="M127.927 6.8962L129.01 7.91155C128.193 8.83413 127.01 9.34954 125.609 9.39077L125.474 9.89072C126.234 9.98349 126.594 10.4061 126.594 10.9628C126.594 11.6998 125.901 12.1585 124.849 12.1585C124.38 12.1585 123.995 12.0709 123.677 11.8957L123.969 11.1432C124.234 11.2926 124.516 11.3442 124.833 11.3442C125.302 11.3442 125.516 11.1586 125.516 10.8803C125.516 10.6432 125.328 10.4577 124.833 10.4577H124.432L124.729 9.33923C122.354 9.03514 120.661 7.22606 120.661 4.81395C120.661 2.1596 122.714 0.247437 125.464 0.247437C126.917 0.247437 128.182 0.762844 129.01 1.72666L127.927 2.72655C127.276 2.02559 126.464 1.68542 125.542 1.68542C123.687 1.68542 122.344 2.9791 122.344 4.79849C122.344 6.61788 123.687 7.91155 125.542 7.91155C126.474 7.91155 127.286 7.57138 127.927 6.85497" fill="white"/>
</mask>
<g mask="url(#mask44_168_482)">
<mask id="mask45_168_482" style="mask-type:luminance" maskUnits="userSpaceOnUse" x="120" y="-1" width="10" height="15">
<path d="M129.974 -0.164917H120.641V13.0295H129.974V-0.164917Z" fill="white"/>
</mask>
<g mask="url(#mask45_168_482)">
<mask id="mask46_168_482" style="mask-type:luminance" maskUnits="userSpaceOnUse" x="120" y="0" width="10" height="13">
<path d="M120.641 0H129.057V12.2925H120.641V0Z" fill="white"/>
</mask>
<g mask="url(#mask46_168_482)">
<mask id="mask47_168_482" style="mask-type:luminance" maskUnits="userSpaceOnUse" x="120" y="0" width="10" height="13">
<path d="M127.927 6.8962L129.01 7.91155C128.193 8.83413 127.01 9.34954 125.609 9.39078L125.474 9.89072C126.234 9.98349 126.594 10.4061 126.594 10.9628C126.594 11.6998 125.901 12.1585 124.849 12.1585C124.38 12.1585 123.995 12.0709 123.677 11.8957L123.969 11.1432C124.234 11.2926 124.516 11.3442 124.833 11.3442C125.302 11.3442 125.516 11.1586 125.516 10.8803C125.516 10.6432 125.328 10.4577 124.833 10.4577H124.432L124.729 9.33923C122.354 9.03514 120.661 7.22606 120.661 4.81395C120.661 2.1596 122.714 0.247437 125.464 0.247437C126.917 0.247437 128.182 0.762845 129.01 1.72666L127.927 2.72655C127.276 2.02559 126.464 1.68543 125.542 1.68543C123.687 1.68543 122.344 2.9791 122.344 4.79849C122.344 6.61788 123.687 7.91155 125.542 7.91155C126.474 7.91155 127.286 7.57138 127.927 6.85497" fill="white"/>
</mask>
<g mask="url(#mask47_168_482)">
<path d="M334.561 -102.659H-149.279V170.941H334.561V-102.659Z" fill="#EED7B6"/>
</g>
</g>
</g>
</g>
</g>
<mask id="mask48_168_482" style="mask-type:luminance" maskUnits="userSpaceOnUse" x="140" y="0" width="11" height="10">
<path d="M140.88 0H150.781V9.48351H140.88V0Z" fill="white"/>
</mask>
<g mask="url(#mask48_168_482)">
<mask id="mask49_168_482" style="mask-type:luminance" maskUnits="userSpaceOnUse" x="141" y="0" width="10" height="10">
<path d="M149.01 4.83971C149.01 3.03063 147.661 1.72664 145.859 1.72664C144.062 1.72664 142.714 3.03063 142.714 4.83971C142.714 6.64364 144.062 7.95277 145.859 7.95277C147.661 7.95277 149.01 6.64364 149.01 4.83971ZM141.036 4.83971C141.036 2.21113 143.089 0.273193 145.859 0.273193C148.635 0.273193 150.687 2.20082 150.687 4.83971C150.687 7.4786 148.635 9.40107 145.859 9.40107C143.089 9.40107 141.036 7.46313 141.036 4.83971Z" fill="white"/>
</mask>
<g mask="url(#mask49_168_482)">
<mask id="mask50_168_482" style="mask-type:luminance" maskUnits="userSpaceOnUse" x="140" y="-1" width="12" height="12">
<path d="M151.307 -0.164917H140.641V10.3906H151.307V-0.164917Z" fill="white"/>
</mask>
<g mask="url(#mask50_168_482)">
<mask id="mask51_168_482" style="mask-type:luminance" maskUnits="userSpaceOnUse" x="140" y="0" width="11" height="10">
<path d="M140.958 0.25769H150.781V9.44226H140.958V0.25769Z" fill="white"/>
</mask>
<g mask="url(#mask51_168_482)">
<mask id="mask52_168_482" style="mask-type:luminance" maskUnits="userSpaceOnUse" x="141" y="0" width="10" height="10">
<path d="M149.01 4.83971C149.01 3.03063 147.661 1.72664 145.859 1.72664C144.062 1.72664 142.714 3.03063 142.714 4.83971C142.714 6.64364 144.062 7.95277 145.859 7.95277C147.661 7.95277 149.01 6.64364 149.01 4.83971ZM141.036 4.83971C141.036 2.21113 143.089 0.273193 145.859 0.273193C148.635 0.273193 150.687 2.20082 150.687 4.83971C150.687 7.4786 148.635 9.40107 145.859 9.40107C143.089 9.40107 141.036 7.46314 141.036 4.83971Z" fill="white"/>
</mask>
<g mask="url(#mask52_168_482)">
<path d="M334.561 -102.659H-149.279V170.941H334.561V-102.659Z" fill="#EED7B6"/>
</g>
</g>
</g>
</g>
</g>
</svg>
